<svg xmlns="http://www.w3.org/2000/svg" xmlns:xlink="http://www.w3.org/1999/xlink" width="1080" zoomAndPan="magnify" viewBox="0 0 810 229.499994" height="306" preserveAspectRatio="xMidYMid meet" version="1.0"><defs><clipPath id="0ddd153c27"><path d="M 0.878906 0 L 809.117188 0 L 809.117188 229 L 0.878906 229 Z M 0.878906 0 " clip-rule="nonzero"/></clipPath><clipPath id="c8805ff2a2"><path d="M 43.253906 43.828125 L 765.703125 43.828125 L 765.703125 121.261719 L 43.253906 121.261719 Z M 43.253906 43.828125 " clip-rule="nonzero"/></clipPath><clipPath id="f916143b15"><path d="M 43.253906 136.242188 L 765.703125 136.242188 L 765.703125 184.09375 L 43.253906 184.09375 Z M 43.253906 136.242188 " clip-rule="nonzero"/></clipPath></defs><g clip-path="url(#0ddd153c27)"><path fill="#ffffff" d="M 0.878906 0 L 809.121094 0 L 809.121094 229 L 0.878906 229 Z M 0.878906 0 " fill-opacity="1" fill-rule="nonzero"/><path fill="#cb6ce6" d="M 0.878906 0 L 809.121094 0 L 809.121094 229 L 0.878906 229 Z M 0.878906 0 " fill-opacity="1" fill-rule="nonzero"/><rect x="-81" width="972" fill="#ffffff" y="-22.949999" height="275.399992" fill-opacity="1"/><path fill="#000000" d="M -1.683594 -1.109375 L 810.636719 -1.109375 L 810.636719 229.027344 L -1.683594 229.027344 Z M -1.683594 -1.109375 " fill-opacity="1" fill-rule="nonzero"/></g><path fill="#ffffff" d="M 5.804688 6.378906 L 803.148438 6.378906 L 803.148438 221.539062 L 5.804688 221.539062 Z M 5.804688 6.378906 " fill-opacity="1" fill-rule="nonzero"/><path fill="#000000" d="M 20.785156 21.359375 L 788.171875 21.359375 L 788.171875 206.558594 L 20.785156 206.558594 Z M 20.785156 21.359375 " fill-opacity="1" fill-rule="nonzero"/><g clip-path="url(#c8805ff2a2)"><path fill="#ffffff" d="M 94.472656 53.445312 L 88.960938 64.5625 C 86.15625 63.027344 83.304688 61.757812 80.40625 60.757812 C 77.496094 59.753906 74.769531 59.253906 72.234375 59.253906 C 69.09375 59.253906 66.625 59.886719 64.820312 61.15625 C 63.015625 62.425781 62.117188 64.328125 62.117188 66.867188 C 62.117188 68.605469 62.804688 70.152344 64.179688 71.515625 C 65.542969 72.890625 67.3125 74.113281 69.488281 75.179688 C 71.652344 76.25 73.902344 77.21875 76.238281 78.085938 C 78.378906 78.886719 80.5 79.835938 82.609375 80.929688 C 84.707031 82.039062 86.589844 83.410156 88.261719 85.039062 C 89.929688 86.679688 91.265625 88.71875 92.269531 91.148438 C 93.269531 93.59375 93.769531 96.585938 93.769531 100.125 C 93.769531 103.863281 92.800781 107.335938 90.867188 110.542969 C 88.929688 113.75 86.089844 116.339844 82.351562 118.316406 C 78.609375 120.28125 74.003906 121.261719 68.527344 121.261719 C 65.722656 121.261719 62.871094 120.972656 59.972656 120.398438 C 57.058594 119.839844 54.203125 118.96875 51.398438 117.796875 C 48.59375 116.632812 45.886719 115.152344 43.28125 113.347656 L 49.695312 102.027344 C 51.429688 103.296875 53.320312 104.414062 55.363281 105.375 C 57.394531 106.347656 59.445312 107.101562 61.515625 107.636719 C 63.585938 108.171875 65.488281 108.4375 67.222656 108.4375 C 68.960938 108.4375 70.71875 108.183594 72.492188 107.679688 C 74.257812 107.183594 75.726562 106.335938 76.902344 105.132812 C 78.0625 103.929688 78.644531 102.261719 78.644531 100.125 C 78.644531 98.65625 78.164062 97.320312 77.203125 96.117188 C 76.226562 94.914062 74.917969 93.8125 73.273438 92.8125 C 71.644531 91.808594 69.863281 90.941406 67.925781 90.207031 C 65.65625 89.339844 63.316406 88.335938 60.914062 87.203125 C 58.507812 86.066406 56.257812 84.679688 54.160156 83.035156 C 52.050781 81.40625 50.347656 79.367188 49.054688 76.925781 C 47.742188 74.492188 47.089844 71.507812 47.089844 67.96875 C 47.089844 63.695312 48.042969 59.988281 49.953125 56.851562 C 51.851562 53.710938 54.535156 51.21875 58.007812 49.375 C 61.480469 47.546875 65.488281 46.53125 70.027344 46.332031 C 75.972656 46.332031 80.800781 47.03125 84.515625 48.433594 C 88.214844 49.835938 91.53125 51.507812 94.472656 53.445312 Z M 103.488281 83.695312 C 103.488281 78.621094 104.457031 73.8125 106.390625 69.269531 C 108.328125 64.730469 111.011719 60.703125 114.445312 57.191406 C 117.890625 53.691406 121.886719 50.941406 126.425781 48.9375 C 130.96875 46.933594 135.84375 45.929688 141.050781 45.929688 C 146.195312 45.929688 151.035156 46.933594 155.578125 48.9375 C 160.117188 50.941406 164.140625 53.691406 167.636719 57.191406 C 171.152344 60.703125 173.890625 64.730469 175.851562 69.269531 C 177.828125 73.8125 178.816406 78.621094 178.816406 83.695312 C 178.816406 88.90625 177.828125 93.78125 175.851562 98.320312 C 173.890625 102.863281 171.152344 106.851562 167.636719 110.28125 C 164.140625 113.726562 160.117188 116.417969 155.578125 118.355469 C 151.035156 120.292969 146.195312 121.261719 141.050781 121.261719 C 135.84375 121.261719 130.96875 120.292969 126.425781 118.355469 C 121.886719 116.417969 117.890625 113.726562 114.445312 110.28125 C 111.011719 106.851562 108.328125 102.863281 106.390625 98.320312 C 104.457031 93.78125 103.488281 88.90625 103.488281 83.695312 Z M 118.511719 83.695312 C 118.511719 86.96875 119.09375 90.019531 120.257812 92.851562 C 121.429688 95.695312 123.066406 98.203125 125.164062 100.363281 C 127.273438 102.542969 129.710938 104.230469 132.476562 105.433594 C 135.253906 106.636719 138.28125 107.238281 141.554688 107.238281 C 144.691406 107.238281 147.609375 106.636719 150.308594 105.433594 C 153.019531 104.230469 155.375 102.542969 157.378906 100.363281 C 159.382812 98.203125 160.953125 95.695312 162.089844 92.851562 C 163.222656 90.019531 163.792969 86.96875 163.792969 83.695312 C 163.792969 80.355469 163.203125 77.25 162.027344 74.378906 C 160.867188 71.507812 159.261719 68.984375 157.21875 66.808594 C 155.191406 64.644531 152.804688 62.960938 150.066406 61.757812 C 147.328125 60.554688 144.359375 59.957031 141.152344 59.957031 C 137.945312 59.957031 134.976562 60.554688 132.238281 61.757812 C 129.5 62.960938 127.09375 64.644531 125.023438 66.808594 C 122.953125 68.984375 121.351562 71.507812 120.214844 74.378906 C 119.082031 77.25 118.511719 80.355469 118.511719 83.695312 Z M 193.34375 46.730469 L 215.679688 46.730469 C 220.277344 46.730469 224.382812 47.3125 228.003906 48.476562 C 231.609375 49.652344 234.628906 51.320312 237.058594 53.484375 C 239.503906 55.660156 241.351562 58.265625 242.609375 61.296875 C 243.890625 64.34375 244.53125 67.769531 244.53125 71.574219 C 244.53125 74.582031 244.078125 77.585938 243.167969 80.589844 C 242.273438 83.597656 240.804688 86.335938 238.761719 88.804688 C 236.730469 91.277344 234.046875 93.257812 230.707031 94.753906 C 227.367188 96.265625 223.226562 97.019531 218.285156 97.019531 L 207.867188 97.019531 L 207.867188 120.460938 L 193.34375 120.460938 Z M 207.867188 82.996094 L 218.1875 82.996094 C 220.390625 82.996094 222.226562 82.628906 223.695312 81.894531 C 225.164062 81.160156 226.3125 80.222656 227.140625 79.089844 C 227.984375 77.953125 228.582031 76.765625 228.945312 75.523438 C 229.316406 74.292969 229.503906 73.144531 229.503906 72.078125 C 229.503906 71.273438 229.386719 70.253906 229.144531 69.011719 C 228.917969 67.78125 228.4375 66.535156 227.703125 65.265625 C 226.953125 63.996094 225.832031 62.925781 224.335938 62.058594 C 222.828125 61.191406 220.808594 60.757812 218.285156 60.757812 L 207.867188 60.757812 Z M 214.480469 92.410156 L 231.808594 92.011719 L 250.039062 120.460938 L 233.089844 120.460938 Z M 306.917969 53.445312 L 301.410156 64.5625 C 298.605469 63.027344 295.753906 61.757812 292.855469 60.757812 C 289.941406 59.753906 287.21875 59.253906 284.679688 59.253906 C 281.542969 59.253906 279.070312 59.886719 277.269531 61.15625 C 275.464844 62.425781 274.5625 64.328125 274.5625 66.867188 C 274.5625 68.605469 275.25 70.152344 276.625 71.515625 C 277.988281 72.890625 279.757812 74.113281 281.9375 75.179688 C 284.101562 76.25 286.351562 77.21875 288.6875 78.085938 C 290.824219 78.886719 292.949219 79.835938 295.058594 80.929688 C 297.15625 82.039062 299.039062 83.410156 300.707031 85.039062 C 302.378906 86.679688 303.714844 88.71875 304.714844 91.148438 C 305.71875 93.59375 306.21875 96.585938 306.21875 100.125 C 306.21875 103.863281 305.25 107.335938 303.3125 110.542969 C 301.375 113.75 298.539062 116.339844 294.796875 118.316406 C 291.058594 120.28125 286.449219 121.261719 280.972656 121.261719 C 278.167969 121.261719 275.316406 120.972656 272.417969 120.398438 C 269.507812 119.839844 266.648438 118.96875 263.84375 117.796875 C 261.039062 116.632812 258.335938 115.152344 255.730469 113.347656 L 262.140625 102.027344 C 263.878906 103.296875 265.769531 104.414062 267.8125 105.375 C 269.839844 106.347656 271.890625 107.101562 273.960938 107.636719 C 276.03125 108.171875 277.9375 108.4375 279.671875 108.4375 C 281.410156 108.4375 283.164062 108.183594 284.941406 107.679688 C 286.703125 107.183594 288.171875 106.335938 289.347656 105.132812 C 290.511719 103.929688 291.089844 102.261719 291.089844 100.125 C 291.089844 98.65625 290.609375 97.320312 289.648438 96.117188 C 288.675781 94.914062 287.371094 93.8125 285.742188 92.8125 C 284.101562 91.808594 282.308594 90.941406 280.375 90.207031 C 278.101562 89.339844 275.765625 88.335938 273.359375 87.203125 C 270.957031 86.066406 268.707031 84.679688 266.609375 83.035156 C 264.5 81.40625 262.796875 79.367188 261.5 76.925781 C 260.191406 74.492188 259.539062 71.507812 259.539062 67.96875 C 259.539062 63.695312 260.492188 59.988281 262.402344 56.851562 C 264.296875 53.710938 266.984375 51.21875 270.457031 49.375 C 273.929688 47.546875 277.9375 46.53125 282.476562 46.332031 C 288.421875 46.332031 293.25 47.03125 296.960938 48.433594 C 300.660156 49.835938 303.980469 51.507812 306.917969 53.445312 Z M 320.441406 120.460938 L 320.441406 46.730469 L 334.96875 46.730469 L 334.96875 120.460938 Z M 386.558594 120.460938 L 386.558594 46.730469 L 436.84375 46.730469 L 436.84375 60.757812 L 401.082031 60.757812 L 401.082031 76.484375 L 432.738281 76.484375 L 432.738281 90.507812 L 401.082031 90.507812 L 401.082031 106.4375 L 438.246094 106.4375 L 438.246094 120.460938 Z M 485.808594 120.460938 L 485.808594 46.730469 L 531.886719 46.730469 L 531.886719 60.757812 L 500.332031 60.757812 L 500.332031 77.484375 L 527.679688 77.484375 L 527.679688 91.511719 L 500.332031 91.511719 L 500.332031 120.460938 Z M 545.914062 120.460938 L 545.914062 46.730469 L 560.4375 46.730469 L 560.4375 120.460938 Z M 585.480469 120.460938 L 571.15625 120.460938 L 604.414062 43.828125 L 605.214844 43.828125 L 638.472656 120.460938 L 621.644531 120.460938 L 600.40625 66.566406 L 610.925781 59.355469 Z M 589.386719 106.035156 L 593.894531 93.8125 L 616.035156 93.8125 L 621.144531 106.035156 Z M 649.171875 46.730469 L 670.808594 46.730469 C 678.488281 46.730469 684.597656 48.28125 689.140625 51.378906 C 693.683594 54.492188 695.953125 59.121094 695.953125 65.265625 C 695.953125 69.804688 694.835938 73.59375 692.605469 76.625 C 690.363281 79.667969 687.324219 81.941406 683.492188 83.4375 C 679.644531 84.945312 675.25 85.699219 670.308594 85.699219 L 668.003906 77.886719 C 674.082031 77.886719 679.476562 78.722656 684.191406 80.390625 C 688.894531 82.058594 692.613281 84.445312 695.351562 87.542969 C 698.089844 90.65625 699.457031 94.382812 699.457031 98.722656 C 699.457031 102.730469 698.742188 106.113281 697.316406 108.878906 C 695.871094 111.65625 693.933594 113.894531 691.503906 115.589844 C 689.058594 117.300781 686.300781 118.535156 683.230469 119.296875 C 680.160156 120.074219 676.984375 120.460938 673.714844 120.460938 L 649.171875 120.460938 Z M 663.695312 76.882812 L 672.511719 76.882812 C 675.382812 76.882812 677.507812 76.015625 678.882812 74.28125 C 680.246094 72.542969 680.925781 70.574219 680.925781 68.371094 C 680.925781 65.832031 680.078125 63.929688 678.382812 62.660156 C 676.671875 61.390625 674.382812 60.757812 671.511719 60.757812 L 663.695312 60.757812 Z M 663.695312 106.9375 L 673.011719 106.9375 C 675.148438 106.9375 677.085938 106.648438 678.824219 106.074219 C 680.558594 105.515625 681.929688 104.613281 682.929688 103.371094 C 683.929688 102.140625 684.433594 100.59375 684.433594 98.722656 C 684.433594 96.585938 683.832031 94.960938 682.628906 93.855469 C 681.425781 92.757812 679.878906 91.992188 677.980469 91.550781 C 676.070312 91.121094 674.082031 90.910156 672.011719 90.910156 L 663.695312 90.910156 Z M 713.984375 120.460938 L 713.984375 46.730469 L 764.269531 46.730469 L 764.269531 60.757812 L 728.507812 60.757812 L 728.507812 76.484375 L 760.164062 76.484375 L 760.164062 90.507812 L 728.507812 90.507812 L 728.507812 106.4375 L 765.671875 106.4375 L 765.671875 120.460938 Z M 713.984375 120.460938 " fill-opacity="1" fill-rule="nonzero"/></g><g clip-path="url(#f916143b15)"><path fill="#ffffff" d="M 57.472656 138.75 C 60.347656 138.75 62.746094 139.097656 64.675781 139.792969 C 66.601562 140.488281 68.03125 141.539062 68.96875 142.941406 C 69.894531 144.347656 70.28125 146.175781 70.125 148.417969 C 70.027344 149.710938 69.664062 150.964844 69.035156 152.179688 C 68.402344 153.398438 67.453125 154.480469 66.191406 155.429688 C 64.925781 156.378906 63.269531 157.121094 61.214844 157.65625 C 61.5625 157.910156 61.871094 158.152344 62.144531 158.386719 C 62.410156 158.625 62.664062 158.863281 62.902344 159.097656 C 63.136719 159.335938 63.371094 159.613281 63.613281 159.929688 C 63.847656 160.246094 64.089844 160.609375 64.34375 161.019531 L 66.664062 164.953125 C 67.265625 165.933594 67.8125 166.742188 68.304688 167.386719 C 68.789062 168.039062 69.3125 168.527344 69.867188 168.855469 C 70.417969 169.191406 71.085938 169.375 71.875 169.40625 L 71.734375 172.011719 L 64.675781 172.011719 C 64.105469 171.539062 63.53125 170.890625 62.949219 170.070312 C 62.363281 169.25 61.785156 168.316406 61.214844 167.273438 L 58.136719 161.824219 C 57.757812 161.164062 57.394531 160.539062 57.046875 159.949219 C 56.699219 159.367188 56.320312 158.871094 55.910156 158.460938 C 55.59375 158.492188 55.261719 158.507812 54.914062 158.507812 C 54.566406 158.507812 54.246094 158.5 53.949219 158.480469 C 53.644531 158.46875 53.367188 158.460938 53.113281 158.460938 L 52.78125 164.90625 C 52.75 165.789062 52.695312 166.59375 52.621094 167.320312 C 52.539062 168.046875 52.464844 168.617188 52.402344 169.027344 C 52.75 168.996094 53.171875 168.972656 53.664062 168.953125 C 54.148438 168.9375 54.625 168.921875 55.085938 168.90625 C 55.539062 168.890625 55.910156 168.886719 56.195312 168.886719 L 56.050781 172.011719 L 43.257812 172.011719 L 43.402344 169.40625 C 44.285156 169.375 44.96875 169.222656 45.457031 168.953125 C 45.949219 168.6875 46.316406 168.210938 46.554688 167.53125 C 46.789062 166.855469 46.921875 165.917969 46.953125 164.714844 L 47.949219 145.8125 C 48.011719 145.023438 48.085938 144.265625 48.167969 143.539062 C 48.242188 142.8125 48.3125 142.242188 48.375 141.832031 C 47.839844 141.863281 47.222656 141.886719 46.527344 141.898438 C 45.832031 141.917969 45.265625 141.941406 44.820312 141.972656 L 45.011719 138.847656 C 47.097656 138.816406 49.175781 138.789062 51.246094 138.769531 C 53.3125 138.757812 55.386719 138.75 57.472656 138.75 Z M 57.234375 141.546875 C 56.414062 141.546875 55.761719 141.671875 55.273438 141.925781 C 54.78125 142.179688 54.425781 142.621094 54.203125 143.253906 C 53.980469 143.882812 53.839844 144.753906 53.777344 145.859375 L 53.253906 155.476562 C 53.667969 155.507812 54.078125 155.539062 54.488281 155.570312 C 54.898438 155.601562 55.324219 155.621094 55.765625 155.621094 C 57.535156 155.585938 59.015625 155.320312 60.203125 154.8125 C 61.382812 154.308594 62.289062 153.519531 62.921875 152.445312 C 63.554688 151.371094 63.917969 149.996094 64.011719 148.324219 C 64.074219 146.902344 63.910156 145.75 63.519531 144.863281 C 63.121094 143.980469 62.589844 143.289062 61.925781 142.796875 C 61.261719 142.3125 60.515625 141.980469 59.679688 141.804688 C 58.839844 141.632812 58.027344 141.546875 57.234375 141.546875 Z M 107.820312 147.800781 C 109.113281 147.800781 110.292969 147.996094 111.351562 148.390625 C 112.40625 148.785156 113.234375 149.414062 113.835938 150.265625 C 114.4375 151.117188 114.734375 152.222656 114.734375 153.582031 C 114.734375 154.875 114.335938 155.980469 113.53125 156.898438 C 112.722656 157.8125 111.664062 158.5625 110.359375 159.144531 C 109.042969 159.730469 107.628906 160.214844 106.113281 160.59375 C 104.597656 160.972656 103.128906 161.242188 101.707031 161.398438 C 101.707031 163.261719 101.910156 164.738281 102.324219 165.824219 C 102.734375 166.917969 103.296875 167.691406 104.007812 168.144531 C 104.714844 168.609375 105.496094 168.839844 106.351562 168.839844 C 107.011719 168.839844 107.75 168.703125 108.558594 168.429688 C 109.359375 168.164062 110.15625 167.667969 110.945312 166.941406 C 111.734375 166.214844 112.429688 165.207031 113.03125 163.910156 L 115.304688 165.046875 C 114.421875 166.972656 113.441406 168.480469 112.367188 169.566406 C 111.292969 170.660156 110.15625 171.429688 108.957031 171.871094 C 107.753906 172.3125 106.507812 172.535156 105.210938 172.535156 C 102.273438 172.566406 100 171.695312 98.390625 169.929688 C 96.777344 168.160156 95.972656 165.601562 95.972656 162.253906 C 95.972656 160.609375 96.210938 158.941406 96.683594 157.25 C 97.15625 155.5625 97.878906 154.007812 98.84375 152.585938 C 99.804688 151.164062 101.027344 150.011719 102.511719 149.128906 C 103.996094 148.242188 105.765625 147.800781 107.820312 147.800781 Z M 107.25 150.40625 C 106.050781 150.40625 105.070312 150.824219 104.3125 151.660156 C 103.554688 152.5 102.980469 153.554688 102.585938 154.832031 C 102.191406 156.113281 101.925781 157.433594 101.800781 158.792969 C 103.507812 158.507812 104.945312 158.089844 106.113281 157.535156 C 107.28125 156.984375 108.183594 156.328125 108.8125 155.570312 C 109.445312 154.8125 109.761719 153.976562 109.761719 153.0625 C 109.730469 152.207031 109.476562 151.550781 109.003906 151.089844 C 108.527344 150.636719 107.945312 150.40625 107.25 150.40625 Z M 154.46875 147.800781 C 155.351562 147.800781 156.378906 147.878906 157.546875 148.039062 C 158.71875 148.195312 159.902344 148.433594 161.101562 148.75 C 160.914062 150.140625 160.699219 151.71875 160.46875 153.488281 C 160.226562 155.257812 159.988281 157.015625 159.757812 158.765625 C 159.515625 160.519531 159.328125 162.125 159.1875 163.578125 C 159.042969 165.03125 158.96875 166.152344 158.96875 166.941406 C 158.96875 167.542969 159.03125 168 159.160156 168.316406 C 159.285156 168.632812 159.523438 168.789062 159.871094 168.789062 C 160.28125 168.789062 160.730469 168.496094 161.226562 167.910156 C 161.710938 167.328125 162.175781 166.28125 162.617188 164.761719 L 164.75 165.378906 C 164.65625 166.011719 164.449219 166.738281 164.132812 167.558594 C 163.816406 168.378906 163.402344 169.167969 162.882812 169.929688 C 162.359375 170.6875 161.71875 171.308594 160.960938 171.792969 C 160.203125 172.289062 159.316406 172.535156 158.304688 172.535156 C 157.234375 172.535156 156.347656 172.203125 155.652344 171.539062 C 154.957031 170.875 154.609375 169.769531 154.609375 168.222656 C 154.609375 167.652344 154.652344 167.023438 154.734375 166.328125 C 154.808594 165.632812 154.910156 164.953125 155.039062 164.289062 L 154.941406 164.289062 C 154.3125 165.964844 153.648438 167.34375 152.953125 168.429688 C 152.257812 169.523438 151.546875 170.371094 150.820312 170.96875 C 150.09375 171.570312 149.367188 171.980469 148.640625 172.203125 C 147.914062 172.421875 147.203125 172.535156 146.507812 172.535156 C 144.773438 172.535156 143.304688 171.855469 142.101562 170.496094 C 140.902344 169.136719 140.300781 166.992188 140.300781 164.054688 C 140.300781 161.839844 140.613281 159.761719 141.230469 157.816406 C 141.84375 155.878906 142.75 154.148438 143.949219 152.632812 C 145.152344 151.117188 146.628906 149.933594 148.386719 149.082031 C 150.136719 148.226562 152.164062 147.800781 154.46875 147.800781 Z M 152.808594 150.453125 C 151.738281 150.453125 150.773438 150.777344 149.921875 151.421875 C 149.066406 152.070312 148.339844 152.992188 147.742188 154.179688 C 147.140625 155.359375 146.691406 156.773438 146.394531 158.414062 C 146.09375 160.058594 145.941406 161.890625 145.941406 163.910156 C 145.941406 165.457031 146.125 166.695312 146.488281 167.625 C 146.851562 168.558594 147.410156 169.027344 148.167969 169.027344 C 148.925781 169.027344 149.652344 168.648438 150.347656 167.890625 C 151.042969 167.132812 151.671875 166.105469 152.242188 164.8125 C 152.808594 163.515625 153.316406 162.070312 153.757812 160.472656 C 154.199219 158.878906 154.5625 157.253906 154.847656 155.601562 C 155.132812 153.9375 155.289062 152.351562 155.320312 150.832031 C 155.070312 150.738281 154.707031 150.652344 154.230469 150.570312 C 153.757812 150.492188 153.285156 150.453125 152.808594 150.453125 Z M 195.292969 172.535156 C 193.742188 172.535156 192.464844 172.128906 191.453125 171.320312 C 190.441406 170.519531 189.695312 169.4375 189.207031 168.078125 C 188.714844 166.722656 188.46875 165.191406 188.46875 163.484375 C 188.46875 160.453125 188.953125 157.757812 189.917969 155.402344 C 190.878906 153.050781 192.355469 151.195312 194.34375 149.839844 C 196.332031 148.480469 198.828125 147.800781 201.828125 147.800781 C 202.144531 147.800781 202.554688 147.808594 203.0625 147.820312 C 203.566406 147.839844 203.960938 147.878906 204.246094 147.945312 C 204.371094 146.585938 204.492188 145.433594 204.605469 144.484375 C 204.714844 143.539062 204.808594 142.730469 204.890625 142.070312 C 204.964844 141.40625 205.050781 140.882812 205.144531 140.503906 C 204.609375 140.535156 204.019531 140.558594 203.375 140.570312 C 202.722656 140.589844 202.191406 140.617188 201.78125 140.648438 L 201.972656 137.613281 C 203.425781 137.613281 204.609375 137.546875 205.523438 137.40625 C 206.441406 137.261719 207.160156 137.078125 207.6875 136.855469 C 208.203125 136.636719 208.574219 136.429688 208.792969 136.242188 L 210.972656 136.242188 C 210.691406 138.484375 210.398438 140.859375 210.101562 143.367188 C 209.800781 145.882812 209.472656 148.605469 209.125 151.542969 C 208.90625 153.628906 208.675781 155.671875 208.445312 157.675781 C 208.203125 159.683594 208.015625 161.496094 207.875 163.105469 C 207.730469 164.714844 207.65625 166.027344 207.65625 167.039062 C 207.65625 167.636719 207.730469 168.078125 207.875 168.363281 C 208.015625 168.648438 208.242188 168.789062 208.558594 168.789062 C 208.96875 168.789062 209.402344 168.496094 209.863281 167.910156 C 210.320312 167.328125 210.769531 166.28125 211.210938 164.761719 L 213.390625 165.378906 C 213.265625 166.011719 213.050781 166.738281 212.753906 167.558594 C 212.453125 168.378906 212.046875 169.167969 211.542969 169.929688 C 211.035156 170.6875 210.414062 171.308594 209.675781 171.792969 C 208.929688 172.289062 208.050781 172.535156 207.042969 172.535156 C 205.9375 172.535156 205.035156 172.203125 204.339844 171.539062 C 203.644531 170.875 203.296875 169.769531 203.296875 168.222656 C 203.296875 167.496094 203.328125 166.847656 203.394531 166.28125 C 203.457031 165.710938 203.550781 165.046875 203.675781 164.289062 L 203.582031 164.289062 C 202.792969 166.5 201.925781 168.207031 200.976562 169.40625 C 200.027344 170.605469 199.066406 171.429688 198.085938 171.871094 C 197.105469 172.3125 196.175781 172.535156 195.292969 172.535156 Z M 196.808594 168.933594 C 197.660156 168.933594 198.464844 168.476562 199.222656 167.558594 C 199.980469 166.644531 200.675781 165.410156 201.308594 163.863281 C 201.941406 162.316406 202.445312 160.59375 202.824219 158.699219 C 203.078125 157.5625 203.28125 156.34375 203.441406 155.050781 C 203.597656 153.753906 203.757812 152.367188 203.914062 150.882812 C 203.597656 150.753906 203.15625 150.652344 202.585938 150.570312 C 202.019531 150.492188 201.546875 150.453125 201.167969 150.453125 C 199.996094 150.453125 199.003906 150.746094 198.179688 151.328125 C 197.359375 151.914062 196.691406 152.6875 196.171875 153.648438 C 195.648438 154.613281 195.238281 155.667969 194.941406 156.804688 C 194.636719 157.941406 194.433594 159.070312 194.324219 160.1875 C 194.210938 161.3125 194.152344 162.316406 194.152344 163.199219 C 194.152344 165 194.375 166.40625 194.816406 167.417969 C 195.257812 168.425781 195.921875 168.933594 196.808594 168.933594 Z M 240.472656 166.136719 C 241.769531 166.105469 242.726562 166.53125 243.34375 167.417969 C 243.957031 168.300781 244.230469 169.390625 244.167969 170.6875 C 244.167969 171.632812 243.996094 172.667969 243.648438 173.792969 C 243.300781 174.914062 242.792969 176.066406 242.128906 177.253906 C 241.46875 178.433594 240.628906 179.59375 239.621094 180.730469 L 238.054688 179.546875 C 238.46875 179.039062 238.902344 178.371094 239.363281 177.535156 C 239.820312 176.695312 240.203125 175.796875 240.519531 174.835938 C 240.835938 173.871094 240.992188 172.945312 240.992188 172.058594 C 240.804688 172.089844 240.628906 172.125 240.472656 172.15625 C 240.316406 172.1875 240.140625 172.203125 239.953125 172.203125 C 239.191406 172.203125 238.539062 171.957031 237.988281 171.464844 C 237.433594 170.976562 237.15625 170.292969 237.15625 169.40625 C 237.21875 168.492188 237.558594 167.71875 238.179688 167.085938 C 238.792969 166.453125 239.554688 166.136719 240.472656 166.136719 Z M 317.292969 172.769531 C 316.09375 172.769531 314.742188 172.589844 313.238281 172.230469 C 311.742188 171.863281 310.394531 171.300781 309.191406 170.542969 L 309.238281 172.4375 L 305.96875 172.4375 L 306.445312 161.683594 L 309.144531 161.683594 C 309.269531 163.484375 309.714844 164.992188 310.472656 166.203125 C 311.230469 167.421875 312.230469 168.332031 313.476562 168.933594 C 314.726562 169.53125 316.109375 169.832031 317.625 169.832031 C 318.792969 169.832031 319.851562 169.617188 320.800781 169.1875 C 321.746094 168.765625 322.507812 168.179688 323.074219 167.4375 C 323.644531 166.695312 323.960938 165.851562 324.023438 164.90625 C 324.085938 163.640625 323.738281 162.589844 322.980469 161.75 C 322.222656 160.917969 321.242188 160.207031 320.042969 159.617188 C 318.84375 159.035156 317.59375 158.460938 316.300781 157.894531 C 314.5 157.136719 312.847656 156.28125 311.34375 155.335938 C 309.847656 154.386719 308.675781 153.242188 307.835938 151.894531 C 307.003906 150.554688 306.632812 148.890625 306.730469 146.902344 C 306.792969 145.984375 307.019531 145.011719 307.410156 143.984375 C 307.808594 142.960938 308.433594 142.003906 309.285156 141.121094 C 310.140625 140.238281 311.261719 139.511719 312.652344 138.941406 C 314.039062 138.371094 315.761719 138.089844 317.816406 138.089844 C 319.046875 138.089844 320.40625 138.269531 321.890625 138.628906 C 323.375 138.996094 324.652344 139.589844 325.726562 140.410156 L 325.679688 138.421875 L 328.902344 138.421875 L 328.382812 149.269531 L 325.726562 149.269531 C 325.601562 147.597656 325.222656 146.132812 324.589844 144.882812 C 323.960938 143.636719 323.082031 142.675781 321.957031 141.992188 C 320.839844 141.316406 319.472656 140.980469 317.863281 140.980469 C 316.316406 140.980469 314.996094 141.421875 313.902344 142.304688 C 312.816406 143.191406 312.242188 144.28125 312.175781 145.574219 C 312.144531 146.648438 312.398438 147.570312 312.933594 148.339844 C 313.472656 149.117188 314.277344 149.828125 315.351562 150.472656 C 316.425781 151.125 317.738281 151.78125 319.285156 152.445312 C 320.484375 152.949219 321.699219 153.519531 322.933594 154.148438 C 324.164062 154.78125 325.300781 155.515625 326.34375 156.347656 C 327.386719 157.1875 328.214844 158.183594 328.828125 159.332031 C 329.445312 160.488281 329.707031 161.839844 329.613281 163.390625 C 329.550781 165.222656 328.996094 166.847656 327.953125 168.269531 C 326.914062 169.691406 325.480469 170.796875 323.660156 171.585938 C 321.847656 172.375 319.726562 172.769531 317.292969 172.769531 Z M 360.53125 147.800781 C 362.082031 147.800781 363.175781 148.28125 363.820312 149.242188 C 364.472656 150.207031 364.796875 151.496094 364.796875 153.109375 C 364.796875 153.929688 364.71875 154.972656 364.558594 156.234375 C 364.402344 157.5 364.21875 158.839844 364.011719 160.261719 C 363.808594 161.683594 363.617188 163.015625 363.441406 164.261719 C 363.273438 165.511719 363.1875 166.53125 363.1875 167.320312 C 363.1875 167.859375 363.28125 168.238281 363.46875 168.460938 C 363.660156 168.679688 363.898438 168.789062 364.179688 168.789062 C 364.59375 168.789062 365.035156 168.496094 365.507812 167.910156 C 365.980469 167.328125 366.441406 166.28125 366.882812 164.761719 L 369.015625 165.378906 C 368.886719 166.042969 368.652344 166.785156 368.304688 167.605469 C 367.957031 168.425781 367.503906 169.207031 366.949219 169.945312 C 366.398438 170.691406 365.730469 171.308594 364.9375 171.792969 C 364.148438 172.289062 363.25 172.535156 362.238281 172.535156 C 360.597656 172.535156 359.441406 172.089844 358.78125 171.207031 C 358.117188 170.324219 357.785156 169.074219 357.785156 167.464844 C 357.785156 166.390625 357.871094 165.210938 358.039062 163.929688 C 358.21875 162.652344 358.417969 161.359375 358.636719 160.042969 C 358.859375 158.738281 359.046875 157.484375 359.207031 156.28125 C 359.363281 155.082031 359.441406 154.007812 359.441406 153.0625 C 359.441406 152.554688 359.363281 152.175781 359.207031 151.921875 C 359.046875 151.671875 358.8125 151.542969 358.496094 151.542969 C 358.117188 151.542969 357.691406 151.835938 357.214844 152.417969 C 356.742188 153.003906 356.285156 154.054688 355.84375 155.570312 L 353.710938 154.957031 C 353.804688 154.324219 354.027344 153.597656 354.375 152.777344 C 354.722656 151.957031 355.183594 151.164062 355.765625 150.40625 C 356.355469 149.648438 357.042969 149.023438 357.832031 148.53125 C 358.621094 148.042969 359.523438 147.800781 360.53125 147.800781 Z M 362.570312 136.429688 C 363.488281 136.429688 364.246094 136.761719 364.84375 137.425781 C 365.445312 138.089844 365.714844 138.925781 365.648438 139.9375 C 365.648438 140.914062 365.335938 141.738281 364.703125 142.398438 C 364.070312 143.0625 363.28125 143.394531 362.332031 143.394531 C 361.386719 143.394531 360.617188 143.0625 360.03125 142.398438 C 359.449219 141.738281 359.160156 140.914062 359.160156 139.9375 C 359.222656 138.925781 359.585938 138.089844 360.25 137.425781 C 360.914062 136.761719 361.6875 136.429688 362.570312 136.429688 Z M 404.054688 184.09375 L 393.113281 184.09375 L 393.113281 181.582031 C 393.933594 181.582031 394.53125 181.363281 394.910156 180.921875 C 395.289062 180.476562 395.558594 179.871094 395.71875 179.101562 C 395.875 178.324219 395.984375 177.460938 396.050781 176.511719 C 396.363281 173.132812 396.632812 170.125 396.855469 167.484375 C 397.074219 164.847656 397.253906 162.566406 397.394531 160.640625 C 397.539062 158.714844 397.652344 157.140625 397.726562 155.921875 C 397.808594 154.710938 397.847656 153.835938 397.847656 153.296875 C 397.847656 152.699219 397.777344 152.253906 397.632812 151.972656 C 397.492188 151.6875 397.265625 151.542969 396.949219 151.542969 C 396.539062 151.542969 396.097656 151.835938 395.621094 152.417969 C 395.148438 153.003906 394.707031 154.054688 394.296875 155.570312 L 392.117188 154.957031 C 392.242188 154.324219 392.449219 153.597656 392.730469 152.777344 C 393.015625 151.957031 393.410156 151.164062 393.917969 150.40625 C 394.421875 149.648438 395.042969 149.023438 395.785156 148.53125 C 396.527344 148.042969 397.40625 147.800781 398.417969 147.800781 C 399.554688 147.800781 400.472656 148.164062 401.167969 148.890625 C 401.859375 149.617188 402.207031 150.769531 402.207031 152.351562 C 402.207031 153.042969 402.167969 153.683594 402.085938 154.265625 C 402.007812 154.851562 401.925781 155.445312 401.828125 156.046875 L 401.925781 156.046875 C 402.714844 153.804688 403.574219 152.085938 404.5 150.898438 C 405.4375 149.71875 406.394531 148.90625 407.371094 148.464844 C 408.351562 148.023438 409.269531 147.800781 410.121094 147.800781 C 411.636719 147.800781 412.902344 148.195312 413.910156 148.984375 C 414.921875 149.777344 415.679688 150.847656 416.183594 152.207031 C 416.691406 153.566406 416.945312 155.128906 416.945312 156.898438 C 416.945312 159.929688 416.445312 162.621094 415.445312 164.972656 C 414.453125 167.328125 412.953125 169.175781 410.945312 170.515625 C 408.941406 171.859375 406.425781 172.535156 403.394531 172.535156 C 403.140625 172.535156 402.855469 172.527344 402.539062 172.515625 C 402.222656 172.496094 401.925781 172.46875 401.640625 172.4375 C 401.546875 174.269531 401.457031 175.75 401.375 176.875 C 401.296875 177.992188 401.234375 178.875 401.183594 179.527344 C 401.140625 180.171875 401.070312 180.730469 400.976562 181.203125 C 401.480469 181.140625 402.023438 181.101562 402.605469 181.089844 C 403.195312 181.070312 403.675781 181.0625 404.054688 181.0625 Z M 404.007812 169.929688 C 405.175781 169.929688 406.179688 169.628906 407.011719 169.027344 C 407.851562 168.425781 408.546875 167.652344 409.097656 166.707031 C 409.652344 165.757812 410.089844 164.714844 410.40625 163.578125 C 410.722656 162.441406 410.949219 161.320312 411.085938 160.214844 C 411.234375 159.109375 411.304688 158.113281 411.304688 157.230469 C 411.304688 155.964844 411.210938 154.898438 411.019531 154.027344 C 410.832031 153.160156 410.539062 152.507812 410.140625 152.066406 C 409.75 151.625 409.253906 151.402344 408.652344 151.402344 C 407.925781 151.402344 407.238281 151.722656 406.585938 152.367188 C 405.941406 153.019531 405.339844 153.9375 404.785156 155.125 C 404.234375 156.308594 403.757812 157.703125 403.34375 159.316406 C 402.933594 160.925781 402.585938 162.710938 402.304688 164.667969 C 402.207031 165.425781 402.113281 166.207031 402.019531 167.007812 C 401.925781 167.816406 401.84375 168.664062 401.78125 169.550781 C 402.191406 169.644531 402.59375 169.730469 402.984375 169.804688 C 403.382812 169.886719 403.722656 169.929688 404.007812 169.929688 Z M 445.636719 166.136719 C 446.933594 166.105469 447.886719 166.53125 448.5 167.417969 C 449.117188 168.300781 449.394531 169.390625 449.332031 170.6875 C 449.332031 171.632812 449.160156 172.667969 448.8125 173.792969 C 448.464844 174.914062 447.957031 176.066406 447.296875 177.253906 C 446.632812 178.433594 445.792969 179.59375 444.785156 180.730469 L 443.21875 179.546875 C 443.632812 179.039062 444.0625 178.371094 444.519531 177.535156 C 444.980469 176.695312 445.367188 175.796875 445.683594 174.835938 C 446 173.871094 446.15625 172.945312 446.15625 172.058594 C 445.96875 172.089844 445.792969 172.125 445.636719 172.15625 C 445.480469 172.1875 445.304688 172.203125 445.117188 172.203125 C 444.359375 172.203125 443.699219 171.957031 443.144531 171.464844 C 442.59375 170.976562 442.320312 170.292969 442.320312 169.40625 C 442.382812 168.492188 442.722656 167.71875 443.335938 167.085938 C 443.953125 166.453125 444.722656 166.136719 445.636719 166.136719 Z M 512.5 138.847656 L 535.761719 138.847656 L 535.527344 147.753906 L 532.96875 147.753906 C 533.0625 145.953125 532.832031 144.601562 532.277344 143.699219 C 531.726562 142.800781 531 142.195312 530.097656 141.878906 C 529.199219 141.5625 528.277344 141.421875 527.328125 141.453125 L 524.816406 141.5 C 523.996094 141.53125 523.332031 141.671875 522.828125 141.925781 C 522.324219 142.179688 521.949219 142.628906 521.710938 143.273438 C 521.476562 143.921875 521.328125 144.878906 521.265625 146.144531 L 520.886719 153.390625 L 525.71875 153.441406 C 526.160156 153.125 526.523438 152.777344 526.808594 152.398438 C 527.09375 152.019531 527.304688 151.566406 527.441406 151.042969 C 527.589844 150.523438 527.675781 149.902344 527.707031 149.175781 L 530.644531 149.175781 L 530.078125 160.308594 L 527.472656 160.308594 C 527.535156 158.953125 527.375 157.980469 526.996094 157.390625 C 526.617188 156.808594 526.066406 156.449219 525.339844 156.3125 C 524.613281 156.164062 523.726562 156.109375 522.6875 156.140625 L 520.742188 156.234375 L 520.269531 165 C 520.238281 165.851562 520.179688 166.632812 520.097656 167.339844 C 520.023438 168.054688 519.953125 168.617188 519.890625 169.027344 L 527.140625 168.980469 C 528.246094 168.980469 529.273438 168.765625 530.21875 168.335938 C 531.167969 167.914062 531.945312 167.1875 532.558594 166.15625 C 533.179688 165.132812 533.535156 163.738281 533.628906 161.96875 L 536.238281 161.96875 L 535.429688 172.011719 L 510.746094 172.011719 L 510.886719 169.40625 C 511.773438 169.375 512.457031 169.222656 512.945312 168.953125 C 513.4375 168.6875 513.800781 168.210938 514.035156 167.53125 C 514.273438 166.855469 514.410156 165.917969 514.441406 164.714844 L 515.484375 145.8125 C 515.515625 145.023438 515.570312 144.265625 515.644531 143.539062 C 515.726562 142.8125 515.800781 142.242188 515.863281 141.832031 C 515.328125 141.863281 514.710938 141.886719 514.015625 141.898438 C 513.320312 141.917969 512.769531 141.941406 512.355469 141.972656 Z M 569.714844 172.535156 C 568.261719 172.535156 566.917969 172.320312 565.6875 171.890625 C 564.457031 171.464844 563.453125 170.851562 562.683594 170.042969 C 561.90625 169.238281 561.519531 168.285156 561.519531 167.179688 C 561.519531 166.296875 561.78125 165.574219 562.304688 165.019531 C 562.824219 164.46875 563.460938 164.195312 564.21875 164.195312 C 565.007812 164.195312 565.632812 164.453125 566.09375 164.972656 C 566.550781 165.496094 566.777344 166.105469 566.777344 166.800781 C 566.777344 167.023438 566.753906 167.257812 566.710938 167.511719 C 566.660156 167.765625 566.570312 168.015625 566.445312 168.269531 C 566.636719 168.710938 567.085938 169.089844 567.800781 169.40625 C 568.507812 169.722656 569.164062 169.878906 569.761719 169.878906 C 571.246094 169.878906 572.320312 169.550781 572.984375 168.886719 C 573.648438 168.222656 573.980469 167.402344 573.980469 166.421875 C 573.980469 165.726562 573.726562 165.117188 573.222656 164.59375 C 572.714844 164.074219 572.066406 163.570312 571.277344 163.078125 C 570.488281 162.589844 569.652344 162.09375 568.765625 161.589844 C 567.472656 160.832031 566.359375 160.105469 565.433594 159.410156 C 564.496094 158.714844 563.792969 157.980469 563.320312 157.203125 C 562.84375 156.429688 562.609375 155.523438 562.609375 154.480469 C 562.609375 153.34375 562.957031 152.269531 563.652344 151.261719 C 564.34375 150.25 565.339844 149.417969 566.636719 148.769531 C 567.929688 148.125 569.492188 147.800781 571.324219 147.800781 C 572.558594 147.800781 573.757812 147.996094 574.925781 148.390625 C 576.09375 148.785156 577.058594 149.363281 577.816406 150.125 C 578.574219 150.882812 578.953125 151.78125 578.953125 152.824219 C 578.953125 153.582031 578.71875 154.234375 578.242188 154.785156 C 577.769531 155.339844 577.121094 155.621094 576.300781 155.621094 C 575.542969 155.621094 574.9375 155.367188 574.480469 154.859375 C 574.019531 154.355469 573.789062 153.753906 573.789062 153.0625 C 573.789062 152.808594 573.816406 152.570312 573.867188 152.351562 C 573.910156 152.128906 573.996094 151.90625 574.121094 151.6875 C 573.898438 151.277344 573.515625 150.960938 572.964844 150.738281 C 572.410156 150.519531 571.800781 150.40625 571.136719 150.40625 C 570.632812 150.40625 570.105469 150.523438 569.554688 150.757812 C 569 151 568.53125 151.328125 568.152344 151.753906 C 567.773438 152.183594 567.582031 152.699219 567.582031 153.296875 C 567.582031 153.804688 567.710938 154.246094 567.960938 154.625 C 568.214844 155.003906 568.65625 155.414062 569.289062 155.855469 C 569.921875 156.296875 570.773438 156.835938 571.847656 157.46875 C 572.921875 158.097656 574.019531 158.769531 575.144531 159.476562 C 576.261719 160.191406 577.199219 161.011719 577.960938 161.941406 C 578.71875 162.875 579.097656 164.019531 579.097656 165.378906 C 579.097656 166.769531 578.695312 168 577.894531 169.074219 C 577.085938 170.148438 575.96875 170.992188 574.546875 171.605469 C 573.125 172.222656 571.515625 172.535156 569.714844 172.535156 Z M 616.316406 147.800781 C 617.738281 147.800781 619.011719 148.039062 620.136719 148.511719 C 621.253906 148.984375 622.144531 149.640625 622.808594 150.472656 C 623.472656 151.3125 623.804688 152.300781 623.804688 153.441406 C 623.804688 154.292969 623.5625 154.992188 623.074219 155.542969 C 622.582031 156.097656 621.925781 156.378906 621.101562 156.378906 C 620.125 156.410156 619.4375 156.125 619.046875 155.523438 C 618.648438 154.925781 618.449219 154.386719 618.449219 153.914062 C 618.449219 153.628906 618.492188 153.3125 618.574219 152.964844 C 618.648438 152.617188 618.78125 152.285156 618.972656 151.972656 C 618.84375 151.496094 618.527344 151.125 618.023438 150.851562 C 617.519531 150.585938 616.917969 150.453125 616.222656 150.453125 C 615.085938 150.453125 614.152344 150.800781 613.425781 151.496094 C 612.703125 152.191406 612.125 153.078125 611.703125 154.148438 C 611.273438 155.222656 610.964844 156.367188 610.773438 157.582031 C 610.585938 158.800781 610.488281 159.945312 610.488281 161.019531 C 610.425781 162.882812 610.609375 164.382812 611.039062 165.523438 C 611.464844 166.660156 612.03125 167.484375 612.746094 168.003906 C 613.453125 168.527344 614.21875 168.804688 615.039062 168.839844 C 615.703125 168.871094 616.4375 168.757812 617.246094 168.507812 C 618.046875 168.253906 618.84375 167.738281 619.632812 166.960938 C 620.425781 166.191406 621.136719 165.0625 621.765625 163.578125 L 624.136719 164.714844 C 623.28125 166.707031 622.3125 168.269531 621.226562 169.40625 C 620.132812 170.542969 618.980469 171.339844 617.769531 171.792969 C 616.546875 172.253906 615.292969 172.503906 613.996094 172.535156 C 611.214844 172.503906 608.984375 171.648438 607.296875 169.976562 C 605.605469 168.300781 604.757812 165.710938 604.757812 162.203125 C 604.757812 160.65625 604.988281 159.046875 605.449219 157.371094 C 605.902344 155.699219 606.605469 154.140625 607.550781 152.699219 C 608.5 151.265625 609.699219 150.089844 611.152344 149.175781 C 612.605469 148.257812 614.328125 147.800781 616.316406 147.800781 Z M 663.109375 147.800781 C 663.996094 147.800781 665.019531 147.878906 666.191406 148.039062 C 667.359375 148.195312 668.542969 148.433594 669.742188 148.75 C 669.554688 150.140625 669.34375 151.71875 669.109375 153.488281 C 668.867188 155.257812 668.632812 157.015625 668.398438 158.765625 C 668.15625 160.519531 667.96875 162.125 667.828125 163.578125 C 667.683594 165.03125 667.609375 166.152344 667.609375 166.941406 C 667.609375 167.542969 667.675781 168 667.800781 168.316406 C 667.925781 168.632812 668.164062 168.789062 668.511719 168.789062 C 668.921875 168.789062 669.375 168.496094 669.867188 167.910156 C 670.351562 167.328125 670.816406 166.28125 671.257812 164.761719 L 673.390625 165.378906 C 673.296875 166.011719 673.089844 166.738281 672.777344 167.558594 C 672.460938 168.378906 672.042969 169.167969 671.523438 169.929688 C 671 170.6875 670.359375 171.308594 669.601562 171.792969 C 668.84375 172.289062 667.957031 172.535156 666.949219 172.535156 C 665.875 172.535156 664.988281 172.203125 664.292969 171.539062 C 663.601562 170.875 663.253906 169.769531 663.253906 168.222656 C 663.253906 167.652344 663.292969 167.023438 663.375 166.328125 C 663.453125 165.632812 663.550781 164.953125 663.679688 164.289062 L 663.585938 164.289062 C 662.953125 165.964844 662.289062 167.34375 661.59375 168.429688 C 660.898438 169.523438 660.1875 170.371094 659.460938 170.96875 C 658.734375 171.570312 658.007812 171.980469 657.28125 172.203125 C 656.554688 172.421875 655.84375 172.535156 655.152344 172.535156 C 653.414062 172.535156 651.945312 171.855469 650.742188 170.496094 C 649.542969 169.136719 648.945312 166.992188 648.945312 164.054688 C 648.945312 161.839844 649.253906 159.761719 649.871094 157.816406 C 650.484375 155.878906 651.390625 154.148438 652.59375 152.632812 C 653.792969 151.117188 655.269531 149.933594 657.027344 149.082031 C 658.777344 148.226562 660.804688 147.800781 663.109375 147.800781 Z M 661.453125 150.453125 C 660.378906 150.453125 659.414062 150.777344 658.5625 151.421875 C 657.707031 152.070312 656.984375 152.992188 656.382812 154.179688 C 655.78125 155.359375 655.332031 156.773438 655.035156 158.414062 C 654.734375 160.058594 654.582031 161.890625 654.582031 163.910156 C 654.582031 165.457031 654.765625 166.695312 655.132812 167.625 C 655.492188 168.558594 656.050781 169.027344 656.808594 169.027344 C 657.566406 169.027344 658.292969 168.648438 658.988281 167.890625 C 659.683594 167.132812 660.316406 166.105469 660.882812 164.8125 C 661.453125 163.515625 661.957031 162.070312 662.398438 160.472656 C 662.839844 158.878906 663.203125 157.253906 663.488281 155.601562 C 663.773438 153.9375 663.929688 152.351562 663.964844 150.832031 C 663.710938 150.738281 663.347656 150.652344 662.875 150.570312 C 662.398438 150.492188 661.925781 150.453125 661.453125 150.453125 Z M 708.148438 184.09375 L 697.203125 184.09375 L 697.203125 181.582031 C 698.027344 181.582031 698.625 181.363281 699.003906 180.921875 C 699.382812 180.476562 699.652344 179.871094 699.8125 179.101562 C 699.96875 178.324219 700.078125 177.460938 700.140625 176.511719 C 700.457031 173.132812 700.726562 170.125 700.949219 167.484375 C 701.167969 164.847656 701.351562 162.566406 701.496094 160.640625 C 701.636719 158.714844 701.746094 157.140625 701.828125 155.921875 C 701.90625 154.710938 701.941406 153.835938 701.941406 153.296875 C 701.941406 152.699219 701.875 152.253906 701.734375 151.972656 C 701.589844 151.6875 701.359375 151.542969 701.042969 151.542969 C 700.632812 151.542969 700.191406 151.835938 699.714844 152.417969 C 699.242188 153.003906 698.800781 154.054688 698.390625 155.570312 L 696.210938 154.957031 C 696.335938 154.324219 696.542969 153.597656 696.824219 152.777344 C 697.109375 151.957031 697.503906 151.164062 698.011719 150.40625 C 698.515625 149.648438 699.140625 149.023438 699.886719 148.53125 C 700.625 148.042969 701.5 147.800781 702.511719 147.800781 C 703.648438 147.800781 704.5625 148.164062 705.257812 148.890625 C 705.953125 149.617188 706.300781 150.769531 706.300781 152.351562 C 706.300781 153.042969 706.265625 153.683594 706.1875 154.265625 C 706.105469 154.851562 706.015625 155.445312 705.921875 156.046875 L 706.015625 156.046875 C 706.808594 153.804688 707.667969 152.085938 708.605469 150.898438 C 709.53125 149.71875 710.488281 148.90625 711.464844 148.464844 C 712.445312 148.023438 713.359375 147.800781 714.214844 147.800781 C 715.730469 147.800781 716.992188 148.195312 718.003906 148.984375 C 719.015625 149.777344 719.773438 150.847656 720.277344 152.207031 C 720.785156 153.566406 721.035156 155.128906 721.035156 156.898438 C 721.035156 159.929688 720.539062 162.621094 719.550781 164.972656 C 718.550781 167.328125 717.050781 169.175781 715.046875 170.515625 C 713.039062 171.859375 710.519531 172.535156 707.484375 172.535156 C 707.234375 172.535156 706.949219 172.527344 706.632812 172.515625 C 706.316406 172.496094 706.015625 172.46875 705.734375 172.4375 C 705.636719 174.269531 705.554688 175.75 705.476562 176.875 C 705.394531 177.992188 705.332031 178.875 705.289062 179.527344 C 705.238281 180.171875 705.164062 180.730469 705.070312 181.203125 C 705.574219 181.140625 706.121094 181.101562 706.710938 181.089844 C 707.289062 181.070312 707.769531 181.0625 708.148438 181.0625 Z M 708.101562 169.929688 C 709.269531 169.929688 710.273438 169.628906 711.117188 169.027344 C 711.949219 168.425781 712.644531 167.652344 713.199219 166.707031 C 713.75 165.757812 714.183594 164.714844 714.5 163.578125 C 714.8125 162.441406 715.042969 161.320312 715.191406 160.214844 C 715.328125 159.109375 715.398438 158.113281 715.398438 157.230469 C 715.398438 155.964844 715.304688 154.898438 715.113281 154.027344 C 714.925781 153.160156 714.632812 152.507812 714.242188 152.066406 C 713.84375 151.625 713.34375 151.402344 712.746094 151.402344 C 712.019531 151.402344 711.332031 151.722656 710.6875 152.367188 C 710.039062 153.019531 709.4375 153.9375 708.886719 155.125 C 708.332031 156.308594 707.847656 157.703125 707.4375 159.316406 C 707.027344 160.925781 706.679688 162.710938 706.394531 164.667969 C 706.300781 165.425781 706.207031 166.207031 706.113281 167.007812 C 706.015625 167.816406 705.9375 168.664062 705.875 169.550781 C 706.285156 169.644531 706.691406 169.730469 707.089844 169.804688 C 707.480469 169.886719 707.816406 169.929688 708.101562 169.929688 Z M 758.210938 147.800781 C 759.507812 147.800781 760.683594 147.996094 761.746094 148.390625 C 762.800781 148.785156 763.628906 149.414062 764.226562 150.265625 C 764.828125 151.117188 765.128906 152.222656 765.128906 153.582031 C 765.128906 154.875 764.726562 155.980469 763.925781 156.898438 C 763.117188 157.8125 762.058594 158.5625 760.75 159.144531 C 759.4375 159.730469 758.023438 160.214844 756.503906 160.59375 C 754.988281 160.972656 753.519531 161.242188 752.097656 161.398438 C 752.097656 163.261719 752.304688 164.738281 752.714844 165.824219 C 753.125 166.917969 753.6875 167.691406 754.402344 168.144531 C 755.109375 168.609375 755.890625 168.839844 756.742188 168.839844 C 757.40625 168.839844 758.140625 168.703125 758.949219 168.429688 C 759.753906 168.164062 760.546875 167.667969 761.339844 166.941406 C 762.128906 166.214844 762.824219 165.207031 763.421875 163.910156 L 765.695312 165.046875 C 764.8125 166.972656 763.832031 168.480469 762.757812 169.566406 C 761.6875 170.660156 760.546875 171.429688 759.347656 171.871094 C 758.148438 172.3125 756.898438 172.535156 755.605469 172.535156 C 752.667969 172.566406 750.394531 171.695312 748.78125 169.929688 C 747.171875 168.160156 746.367188 165.601562 746.367188 162.253906 C 746.367188 160.609375 746.601562 158.941406 747.078125 157.25 C 747.550781 155.5625 748.269531 154.007812 749.238281 152.585938 C 750.199219 151.164062 751.421875 150.011719 752.90625 149.128906 C 754.390625 148.242188 756.15625 147.800781 758.210938 147.800781 Z M 757.640625 150.40625 C 756.441406 150.40625 755.464844 150.824219 754.703125 151.660156 C 753.945312 152.5 753.371094 153.554688 752.980469 154.832031 C 752.582031 156.113281 752.320312 157.433594 752.195312 158.792969 C 753.898438 158.507812 755.335938 158.089844 756.503906 157.535156 C 757.675781 156.984375 758.574219 156.328125 759.207031 155.570312 C 759.835938 154.8125 760.152344 153.976562 760.152344 153.0625 C 760.121094 152.207031 759.871094 151.550781 759.394531 151.089844 C 758.921875 150.636719 758.335938 150.40625 757.640625 150.40625 Z M 757.640625 150.40625 " fill-opacity="1" fill-rule="nonzero"/></g></svg>