<svg xmlns="http://www.w3.org/2000/svg" version="1.1" xmlns:xlink="http://www.w3.org/1999/xlink" xmlns:svgjs="http://svgjs.dev/svgjs" width="1000" height="1000" viewBox="0 0 1000 1000"><rect width="1000" height="1000" fill="#001f3f"></rect><g transform="matrix(0.7,0,0,0.7,150.11896067415722,400.8442972162602)"><svg viewBox="0 0 356 101" data-background-color="#001f3f" preserveAspectRatio="xMidYMid meet" height="283" width="1000" xmlns="http://www.w3.org/2000/svg" xmlns:xlink="http://www.w3.org/1999/xlink"><g id="tight-bounds" transform="matrix(1,0,0,1,-0.06049999999996203,0.053891878635624835)"><svg viewBox="0 0 356.12052 100.89221624272878" height="100.89221624272878" width="356.12052"><g><svg viewBox="0 0 356.12052 100.89221624272878" height="100.89221624272878" width="356.12052"><g><svg viewBox="0 0 356.12052 100.89221624272878" height="100.89221624272878" width="356.12052"><g><path d="M0 100.892v-100.892h356.121v100.892z" fill="#e5edec" stroke="transparent" stroke-width="0" rx="0%" data-fill-palette-color="tertiary"></path><path d="M3.283 97.609v-94.326h349.554v94.326z" fill="#001f3f" stroke="transparent" stroke-width="0" rx="0%" data-fill-palette-color="quaternary"></path><path d="M9.85 91.042v-81.192h336.421v81.192z" fill="#e5edec" stroke="transparent" stroke-width="0" data-fill-palette-color="tertiary"></path></g><g transform="matrix(1,0,0,1,19.69974,19.69974)" id="textblocktransform"><svg viewBox="0 0 316.72104 61.49273624272879" height="61.49273624272879" width="316.72104" id="textblock"><g><svg viewBox="0 0 316.72104 33.94694452579035" height="33.94694452579035" width="316.72104"><g transform="matrix(1,0,0,1,0,0)"><svg width="316.72104" viewBox="1.6 -38.25 360.57 38.65" height="33.94694452579035" data-palette-color="#001f3f"><path d="M27.15-33.45L24.4-27.9Q22.3-29.05 20.13-29.8 17.95-30.55 16.05-30.55L16.05-30.55Q13.7-30.55 12.35-29.6 11-28.65 11-26.75L11-26.75Q11-25.45 12.03-24.43 13.05-23.4 14.68-22.6 16.3-21.8 18.05-21.15L18.05-21.15Q19.65-20.55 21.23-19.73 22.8-18.9 24.05-17.68 25.3-16.45 26.05-14.63 26.8-12.8 26.8-10.15L26.8-10.15Q26.8-7.35 25.35-4.95 23.9-2.55 21.1-1.07 18.3 0.4 14.2 0.4L14.2 0.4Q12.1 0.4 9.93-0.03 7.75-0.45 5.65-1.33 3.55-2.2 1.6-3.55L1.6-3.55 4.8-9.2Q6.1-8.25 7.63-7.53 9.15-6.8 10.7-6.4 12.25-6 13.55-6L13.55-6Q14.85-6 16.18-6.38 17.5-6.75 18.38-7.65 19.25-8.55 19.25-10.15L19.25-10.15Q19.25-11.25 18.53-12.15 17.8-13.05 16.57-13.8 15.35-14.55 13.9-15.1L13.9-15.1Q12.2-15.75 10.4-16.6 8.6-17.45 7.03-18.68 5.45-19.9 4.48-21.73 3.5-23.55 3.5-26.2L3.5-26.2Q3.5-29.4 4.93-31.75 6.35-34.1 8.95-35.48 11.55-36.85 14.95-37L14.95-37Q19.4-37 22.18-35.95 24.95-34.9 27.15-33.45L27.15-33.45ZM31.65-18.35L31.65-18.35Q31.65-22.15 33.1-25.55 34.55-28.95 37.12-31.58 39.7-34.2 43.1-35.7 46.5-37.2 50.4-37.2L50.4-37.2Q54.25-37.2 57.65-35.7 61.05-34.2 63.67-31.58 66.3-28.95 67.77-25.55 69.25-22.15 69.25-18.35L69.25-18.35Q69.25-14.45 67.77-11.05 66.3-7.65 63.67-5.08 61.05-2.5 57.65-1.05 54.25 0.4 50.4 0.4L50.4 0.4Q46.5 0.4 43.1-1.05 39.7-2.5 37.12-5.08 34.55-7.65 33.1-11.05 31.65-14.45 31.65-18.35ZM39.15-18.35L39.15-18.35Q39.15-15.9 40.02-13.78 40.9-11.65 42.47-10.03 44.05-8.4 46.12-7.5 48.2-6.6 50.65-6.6L50.65-6.6Q53-6.6 55.02-7.5 57.05-8.4 58.55-10.03 60.05-11.65 60.9-13.78 61.75-15.9 61.75-18.35L61.75-18.35Q61.75-20.85 60.87-23 60-25.15 58.47-26.78 56.95-28.4 54.9-29.3 52.85-30.2 50.45-30.2L50.45-30.2Q48.05-30.2 46-29.3 43.95-28.4 42.4-26.78 40.85-25.15 40-23 39.15-20.85 39.15-18.35ZM76.5-36.8L87.65-36.8Q91.09-36.8 93.8-35.93 96.5-35.05 98.32-33.43 100.15-31.8 101.09-29.53 102.05-27.25 102.05-24.4L102.05-24.4Q102.05-22.15 101.37-19.9 100.7-17.65 99.17-15.8 97.65-13.95 95.15-12.83 92.65-11.7 88.95-11.7L88.95-11.7 83.75-11.7 83.75 0 76.5 0 76.5-36.8ZM83.75-18.7L88.9-18.7Q90.55-18.7 91.65-19.25 92.75-19.8 93.37-20.65 94-21.5 94.27-22.43 94.55-23.35 94.55-24.15L94.55-24.15Q94.55-24.75 94.37-25.68 94.2-26.6 93.65-27.55 93.09-28.5 91.97-29.15 90.84-29.8 88.95-29.8L88.95-29.8 83.75-29.8 83.75-18.7ZM87.05-14L95.7-14.2 104.8 0 96.34 0 87.05-14ZM133.19-33.45L130.44-27.9Q128.34-29.05 126.17-29.8 123.99-30.55 122.09-30.55L122.09-30.55Q119.74-30.55 118.39-29.6 117.04-28.65 117.04-26.75L117.04-26.75Q117.04-25.45 118.07-24.43 119.09-23.4 120.72-22.6 122.34-21.8 124.09-21.15L124.09-21.15Q125.69-20.55 127.27-19.73 128.84-18.9 130.09-17.68 131.34-16.45 132.09-14.63 132.84-12.8 132.84-10.15L132.84-10.15Q132.84-7.35 131.39-4.95 129.94-2.55 127.14-1.07 124.34 0.4 120.24 0.4L120.24 0.4Q118.14 0.4 115.97-0.03 113.79-0.45 111.69-1.33 109.59-2.2 107.64-3.55L107.64-3.55 110.84-9.2Q112.14-8.25 113.67-7.53 115.19-6.8 116.74-6.4 118.29-6 119.59-6L119.59-6Q120.89-6 122.22-6.38 123.54-6.75 124.42-7.65 125.29-8.55 125.29-10.15L125.29-10.15Q125.29-11.25 124.57-12.15 123.84-13.05 122.62-13.8 121.39-14.55 119.94-15.1L119.94-15.1Q118.24-15.75 116.44-16.6 114.64-17.45 113.07-18.68 111.49-19.9 110.52-21.73 109.54-23.55 109.54-26.2L109.54-26.2Q109.54-29.4 110.97-31.75 112.39-34.1 114.99-35.48 117.59-36.85 120.99-37L120.99-37Q125.44-37 128.22-35.95 130.99-34.9 133.19-33.45L133.19-33.45ZM139.94 0L139.94-36.8 147.19-36.8 147.19 0 139.94 0ZM172.94 0L172.94-36.8 198.04-36.8 198.04-29.8 180.19-29.8 180.19-21.95 195.99-21.95 195.99-14.95 180.19-14.95 180.19-7 198.74-7 198.74 0 172.94 0ZM222.48 0L222.48-36.8 245.48-36.8 245.48-29.8 229.73-29.8 229.73-21.45 243.38-21.45 243.38-14.45 229.73-14.45 229.73 0 222.48 0ZM252.48 0L252.48-36.8 259.73-36.8 259.73 0 252.48 0ZM272.23 0L265.08 0 281.68-38.25 282.08-38.25 298.68 0 290.28 0 279.68-26.9 284.93-30.5 272.23 0ZM274.18-7.2L276.43-13.3 287.48-13.3 290.03-7.2 274.18-7.2ZM304.02-36.8L314.82-36.8Q320.57-36.8 323.97-34.48 327.37-32.15 327.37-27.55L327.37-27.55Q327.37-24.15 325.7-21.88 324.02-19.6 321.15-18.48 318.27-17.35 314.57-17.35L314.57-17.35 313.42-21.25Q317.97-21.25 321.5-20 325.02-18.75 327.07-16.43 329.12-14.1 329.12-10.85L329.12-10.85Q329.12-7.85 328.05-5.78 326.97-3.7 325.15-2.43 323.32-1.15 321.02-0.58 318.72 0 316.27 0L316.27 0 304.02 0 304.02-36.8ZM311.27-21.75L315.67-21.75Q317.82-21.75 318.85-23.05 319.87-24.35 319.87-26L319.87-26Q319.87-27.9 318.6-28.85 317.32-29.8 315.17-29.8L315.17-29.8 311.27-29.8 311.27-21.75ZM311.27-6.75L315.92-6.75Q317.52-6.75 318.82-7.18 320.12-7.6 320.87-8.53 321.62-9.45 321.62-10.85L321.62-10.85Q321.62-12.45 320.72-13.28 319.82-14.1 318.4-14.43 316.97-14.75 315.42-14.75L315.42-14.75 311.27-14.75 311.27-6.75ZM336.37 0L336.37-36.8 361.47-36.8 361.47-29.8 343.62-29.8 343.62-21.95 359.42-21.95 359.42-14.95 343.62-14.95 343.62-7 362.17-7 362.17 0 336.37 0Z" opacity="1" transform="matrix(1,0,0,1,0,0)" fill="#001f3f" class="wordmark-text-0" data-fill-palette-color="quaternary" id="text-0"></path></svg></g></svg></g><g transform="matrix(1,0,0,1,0,40.51352452579035)"><svg viewBox="0 0 316.72104 20.979211716938437" height="20.979211716938437" width="316.72104"><g transform="matrix(1,0,0,1,0,0)"><svg width="316.72104" viewBox="1.85 -37.75 762.39 50.5" height="20.979211716938437" data-palette-color="#001f3f"><path d="M16.85-35.1L16.85-35.1Q21.4-35.1 24.45-34 27.5-32.9 28.98-30.68 30.45-28.45 30.2-24.9L30.2-24.9Q30.05-22.85 29.05-20.93 28.05-19 26.05-17.5 24.05-16 20.8-15.15L20.8-15.15Q21.35-14.75 21.78-14.38 22.2-14 22.58-13.63 22.95-13.25 23.33-12.75 23.7-12.25 24.1-11.6L24.1-11.6 26.55-7.45Q27.5-5.9 28.28-4.88 29.05-3.85 29.93-3.33 30.8-2.8 32.05-2.75L32.05-2.75 31.9 0 24.45 0Q23.55-0.75 22.63-2.05 21.7-3.35 20.8-5L20.8-5 17.55-10.75Q16.95-11.8 16.4-12.73 15.85-13.65 15.2-14.3L15.2-14.3Q14.7-14.25 14.15-14.25 13.6-14.25 13.13-14.28 12.65-14.3 12.25-14.3L12.25-14.3 11.9-7.5Q11.85-6.1 11.73-4.95 11.6-3.8 11.5-3.15L11.5-3.15Q12.05-3.2 12.83-3.23 13.6-3.25 14.33-3.28 15.05-3.3 15.5-3.3L15.5-3.3 15.35 0 1.85 0 2-2.75Q3.4-2.8 4.17-3.23 4.95-3.65 5.33-4.73 5.7-5.8 5.75-7.7L5.75-7.7 6.8-27.65Q6.9-28.9 7.03-30.05 7.15-31.2 7.25-31.85L7.25-31.85Q6.4-31.8 5.3-31.78 4.2-31.75 3.5-31.7L3.5-31.7 3.7-35Q7-35.05 10.28-35.08 13.55-35.1 16.85-35.1ZM16.6-32.15L16.6-32.15Q15.3-32.15 14.53-31.75 13.75-31.35 13.4-30.35 13.05-29.35 12.95-27.6L12.95-27.6 12.4-17.45Q13.05-17.4 13.7-17.35 14.35-17.3 15.05-17.3L15.05-17.3Q17.85-17.35 19.73-18.15 21.6-18.95 22.6-20.65 23.6-22.35 23.75-25L23.75-25Q23.85-27.25 23.23-28.65 22.6-30.05 21.55-30.83 20.5-31.6 19.18-31.88 17.85-32.15 16.6-32.15ZM69.98-25.55L69.98-25.55Q72.03-25.55 73.71-24.93 75.38-24.3 76.33-22.95 77.28-21.6 77.28-19.45L77.28-19.45Q77.28-17.4 76.01-15.95 74.73-14.5 72.66-13.58 70.58-12.65 68.18-12.05 65.78-11.45 63.53-11.2L63.53-11.2Q63.53-8.25 64.18-6.53 64.83-4.8 65.96-4.08 67.08-3.35 68.43-3.35L68.43-3.35Q69.48-3.35 70.76-3.78 72.03-4.2 73.28-5.35 74.53-6.5 75.48-8.55L75.48-8.55 77.88-7.35Q76.48-4.3 74.78-2.58 73.08-0.85 71.18-0.15 69.28 0.55 67.23 0.55L67.23 0.55Q62.58 0.6 60.03-2.2 57.48-5 57.48-10.3L57.48-10.3Q57.48-12.9 58.23-15.58 58.98-18.25 60.51-20.5 62.03-22.75 64.38-24.15 66.73-25.55 69.98-25.55ZM69.38-22.8L69.38-22.8Q67.48-22.8 66.28-21.48 65.08-20.15 64.46-18.13 63.83-16.1 63.63-13.95L63.63-13.95Q66.33-14.4 68.18-15.28 70.03-16.15 71.03-17.35 72.03-18.55 72.03-20L72.03-20Q71.98-21.35 71.23-22.08 70.48-22.8 69.38-22.8ZM119.21-25.55L119.21-25.55Q120.61-25.55 122.46-25.3 124.31-25.05 126.21-24.55L126.21-24.55Q125.91-22.35 125.54-19.55 125.16-16.75 124.79-13.98 124.41-11.2 124.19-8.9 123.96-6.6 123.96-5.35L123.96-5.35Q123.96-4.4 124.16-3.9 124.36-3.4 124.91-3.4L124.91-3.4Q125.56-3.4 126.34-4.33 127.11-5.25 127.81-7.65L127.81-7.65 130.06-7Q129.91-6 129.41-4.7 128.91-3.4 128.09-2.2 127.26-1 126.06-0.23 124.86 0.55 123.26 0.55L123.26 0.55Q121.56 0.55 120.46-0.5 119.36-1.55 119.36-4L119.36-4Q119.36-4.9 119.49-6 119.61-7.1 119.81-8.15L119.81-8.15 119.71-8.15Q118.71-5.5 117.61-3.78 116.51-2.05 115.36-1.1 114.21-0.15 113.06 0.2 111.91 0.55 110.81 0.55L110.81 0.55Q108.06 0.55 106.16-1.6 104.26-3.75 104.26-8.4L104.26-8.4Q104.26-11.9 105.24-14.98 106.21-18.05 108.11-20.45 110.01-22.85 112.79-24.2 115.56-25.55 119.21-25.55ZM117.46-22.75L117.46-22.75Q115.76-22.75 114.41-21.73 113.06-20.7 112.11-18.82 111.16-16.95 110.69-14.35 110.21-11.75 110.21-8.55L110.21-8.55Q110.21-6.1 110.79-4.63 111.36-3.15 112.56-3.15L112.56-3.15Q113.76-3.15 114.86-4.35 115.96-5.55 116.86-7.6 117.76-9.65 118.46-12.18 119.16-14.7 119.61-17.32 120.06-19.95 120.11-22.35L120.11-22.35Q119.71-22.5 118.96-22.63 118.21-22.75 117.46-22.75ZM162.29 0.55L162.29 0.55Q159.84 0.55 158.24-0.73 156.64-2 155.87-4.15 155.09-6.3 155.09-9L155.09-9Q155.09-13.8 156.62-17.53 158.14-21.25 161.29-23.4 164.44-25.55 169.19-25.55L169.19-25.55Q169.69-25.55 170.49-25.53 171.29-25.5 171.74-25.4L171.74-25.4Q171.94-27.55 172.12-29.05 172.29-30.55 172.42-31.6 172.54-32.65 172.69-33.25L172.69-33.25Q171.84-33.2 170.82-33.18 169.79-33.15 169.14-33.1L169.14-33.1 169.34-36.3Q171.64-36.3 173.09-36.52 174.54-36.75 175.37-37.1 176.19-37.45 176.54-37.75L176.54-37.75 178.84-37.75Q178.39-34.2 177.92-30.23 177.44-26.25 176.89-21.6L176.89-21.6Q176.54-18.3 176.17-15.13 175.79-11.95 175.57-9.4 175.34-6.85 175.34-5.25L175.34-5.25Q175.34-4.3 175.57-3.85 175.79-3.4 176.29-3.4L176.29-3.4Q176.94-3.4 177.67-4.33 178.39-5.25 179.09-7.65L179.09-7.65 181.39-7Q181.19-6 180.72-4.7 180.24-3.4 179.44-2.2 178.64-1 177.47-0.23 176.29 0.55 174.69 0.55L174.69 0.55Q172.94 0.55 171.84-0.5 170.74-1.55 170.74-4L170.74-4Q170.74-5.15 170.84-6.05 170.94-6.95 171.14-8.15L171.14-8.15 171.04-8.15Q169.79-4.65 168.29-2.75 166.79-0.85 165.24-0.15 163.69 0.55 162.29 0.55ZM163.89-3.25L163.89-3.25Q165.24-3.25 166.44-4.7 167.64-6.15 168.64-8.6 169.64-11.05 170.24-14.05L170.24-14.05Q170.64-15.85 170.89-17.9 171.14-19.95 171.39-22.3L171.39-22.3Q170.89-22.5 169.99-22.63 169.09-22.75 168.49-22.75L168.49-22.75Q166.64-22.75 165.34-21.83 164.04-20.9 163.22-19.38 162.39-17.85 161.92-16.05 161.44-14.25 161.27-12.48 161.09-10.7 161.09-9.3L161.09-9.3Q161.09-6.45 161.79-4.85 162.49-3.25 163.89-3.25ZM209.97-6.2L209.97-6.2Q212.02-6.25 213-4.85 213.97-3.45 213.87-1.4L213.87-1.4Q213.87 0.1 213.32 1.88 212.77 3.65 211.72 5.53 210.67 7.4 209.07 9.2L209.07 9.2 207.42 7.95Q208.07 7.15 208.8 5.83 209.52 4.5 210.02 2.98 210.52 1.45 210.52 0.05L210.52 0.05Q210.22 0.1 209.97 0.15 209.72 0.2 209.42 0.2L209.42 0.2Q208.22 0.2 207.35-0.58 206.47-1.35 206.47-2.75L206.47-2.75Q206.57-4.2 207.55-5.2 208.52-6.2 209.97-6.2ZM291.04 0.8L291.04 0.8Q289.14 0.8 286.76 0.23 284.39-0.35 282.49-1.55L282.49-1.55 282.54 0.45 279.09 0.45 279.59-10.9 282.44-10.9Q282.64-8.05 283.84-6.13 285.04-4.2 287.01-3.25 288.99-2.3 291.39-2.3L291.39-2.3Q293.24-2.3 294.74-2.98 296.24-3.65 297.14-4.83 298.04-6 298.14-7.5L298.14-7.5Q298.24-9.5 297.04-10.83 295.84-12.15 293.94-13.08 292.04-14 289.99-14.9L289.99-14.9Q287.14-16.1 284.76-17.6 282.39-19.1 281.06-21.23 279.74-23.35 279.89-26.5L279.89-26.5Q279.99-27.95 280.61-29.58 281.24-31.2 282.59-32.6 283.94-34 286.14-34.9 288.34-35.8 291.59-35.8L291.59-35.8Q293.54-35.8 295.89-35.23 298.24-34.65 299.94-33.35L299.94-33.35 299.89-35.45 303.29-35.45 302.74-24 299.94-24Q299.74-26.65 298.74-28.63 297.74-30.6 295.96-31.68 294.19-32.75 291.64-32.75L291.64-32.75Q289.19-32.75 287.46-31.35 285.74-29.95 285.64-27.9L285.64-27.9Q285.59-26.2 286.44-24.98 287.29-23.75 288.99-22.73 290.69-21.7 293.14-20.65L293.14-20.65Q295.04-19.85 296.99-18.85 298.94-17.85 300.59-16.53 302.24-15.2 303.21-13.38 304.19-11.55 304.04-9.1L304.04-9.1Q303.94-6.2 302.29-3.95 300.64-1.7 297.76-0.45 294.89 0.8 291.04 0.8ZM336.67-25.55L336.67-25.55Q339.12-25.55 340.14-24.03 341.17-22.5 341.17-19.95L341.17-19.95Q341.17-18.65 340.92-16.65 340.67-14.65 340.34-12.4 340.02-10.15 339.74-8.18 339.47-6.2 339.47-4.95L339.47-4.95Q339.47-4.1 339.77-3.75 340.07-3.4 340.52-3.4L340.52-3.4Q341.17-3.4 341.92-4.33 342.67-5.25 343.37-7.65L343.37-7.65 345.62-7Q345.42-5.95 344.87-4.65 344.32-3.35 343.44-2.18 342.57-1 341.32-0.23 340.07 0.55 338.47 0.55L338.47 0.55Q335.87 0.55 334.82-0.85 333.77-2.25 333.77-4.8L333.77-4.8Q333.77-6.5 334.04-8.53 334.32-10.55 334.67-12.63 335.02-14.7 335.27-16.6 335.52-18.5 335.52-20L335.52-20Q335.52-20.8 335.27-21.2 335.02-21.6 334.52-21.6L334.52-21.6Q333.92-21.6 333.17-20.68 332.42-19.75 331.72-17.35L331.72-17.35 329.47-18Q329.62-19 330.17-20.3 330.72-21.6 331.64-22.8 332.57-24 333.82-24.78 335.07-25.55 336.67-25.55ZM338.82-37.55L338.82-37.55Q340.27-37.55 341.22-36.5 342.17-35.45 342.07-33.85L342.07-33.85Q342.07-32.3 341.07-31.25 340.07-30.2 338.57-30.2L338.57-30.2Q337.07-30.2 336.14-31.25 335.22-32.3 335.22-33.85L335.22-33.85Q335.32-35.45 336.37-36.5 337.42-37.55 338.82-37.55ZM382.6 12.75L371.05 12.75 371.05 10.1Q372.35 10.1 372.95 9.4 373.55 8.7 373.8 7.48 374.05 6.25 374.15 4.75L374.15 4.75Q374.65-0.6 375-4.78 375.35-8.95 375.57-12 375.8-15.05 375.92-16.98 376.05-18.9 376.05-19.75L376.05-19.75Q376.05-20.7 375.82-21.15 375.6-21.6 375.1-21.6L375.1-21.6Q374.45-21.6 373.7-20.68 372.95-19.75 372.3-17.35L372.3-17.35 370-18Q370.2-19 370.65-20.3 371.1-21.6 371.9-22.8 372.7-24 373.87-24.78 375.05-25.55 376.65-25.55L376.65-25.55Q378.45-25.55 379.55-24.4 380.65-23.25 380.65-20.75L380.65-20.75Q380.65-19.65 380.52-18.73 380.4-17.8 380.25-16.85L380.25-16.85 380.35-16.85Q381.6-20.4 383.07-22.28 384.55-24.15 386.1-24.85 387.65-25.55 389-25.55L389-25.55Q391.4-25.55 393-24.3 394.6-23.05 395.4-20.9 396.2-18.75 396.2-15.95L396.2-15.95Q396.2-11.15 394.62-7.43 393.05-3.7 389.87-1.58 386.7 0.55 381.9 0.55L381.9 0.55Q381.5 0.55 381 0.53 380.5 0.5 380.05 0.45L380.05 0.45Q379.9 3.35 379.77 5.13 379.65 6.9 379.57 7.93 379.5 8.95 379.35 9.7L379.35 9.7Q380.15 9.6 381.07 9.58 382 9.55 382.6 9.55L382.6 9.55 382.6 12.75ZM382.55-2.2L382.55-2.2Q384.4-2.2 385.72-3.15 387.05-4.1 387.92-5.6 388.8-7.1 389.3-8.9 389.8-10.7 390.02-12.45 390.25-14.2 390.25-15.6L390.25-15.6Q390.25-17.6 389.95-18.98 389.65-20.35 389.02-21.05 388.4-21.75 387.45-21.75L387.45-21.75Q386.3-21.75 385.27-20.73 384.25-19.7 383.37-17.82 382.5-15.95 381.85-13.4 381.2-10.85 380.75-7.75L380.75-7.75Q380.6-6.55 380.45-5.28 380.3-4 380.2-2.6L380.2-2.6Q380.85-2.45 381.47-2.33 382.1-2.2 382.55-2.2ZM426.48-6.2L426.48-6.2Q428.53-6.25 429.5-4.85 430.48-3.45 430.38-1.4L430.38-1.4Q430.38 0.1 429.83 1.88 429.28 3.65 428.23 5.53 427.18 7.4 425.58 9.2L425.58 9.2 423.93 7.95Q424.58 7.15 425.3 5.83 426.03 4.5 426.53 2.98 427.03 1.45 427.03 0.05L427.03 0.05Q426.73 0.1 426.48 0.15 426.23 0.2 425.93 0.2L425.93 0.2Q424.73 0.2 423.85-0.58 422.98-1.35 422.98-2.75L422.98-2.75Q423.08-4.2 424.05-5.2 425.03-6.2 426.48-6.2ZM497.04-35L521.59-35 521.34-25.6 518.64-25.6Q518.79-28.45 517.91-29.88 517.04-31.3 515.61-31.8 514.19-32.3 512.69-32.25L512.69-32.25 510.04-32.2Q508.74-32.15 507.94-31.75 507.14-31.35 506.76-30.33 506.39-29.3 506.29-27.3L506.29-27.3 505.89-19.65 510.99-19.6Q511.69-20.1 512.14-20.7 512.59-21.3 512.81-22.13 513.04-22.95 513.09-24.1L513.09-24.1 516.19-24.1 515.59-12.35 512.84-12.35Q512.94-14.5 512.34-15.43 511.74-16.35 510.59-16.57 509.44-16.8 507.79-16.75L507.79-16.75 505.74-16.65 505.24-7.4Q505.19-6.05 505.06-4.93 504.94-3.8 504.84-3.15L504.84-3.15 512.49-3.2Q514.24-3.2 515.74-3.88 517.24-4.55 518.21-6.18 519.19-7.8 519.34-10.6L519.34-10.6 522.09-10.6 521.24 0 495.19 0 495.34-2.75Q496.74-2.8 497.51-3.23 498.29-3.65 498.66-4.73 499.04-5.8 499.09-7.7L499.09-7.7 500.19-27.65Q500.24-28.9 500.36-30.05 500.49-31.2 500.59-31.85L500.59-31.85Q499.74-31.8 498.64-31.78 497.54-31.75 496.89-31.7L496.89-31.7 497.04-35ZM557.42 0.55L557.42 0.55Q555.12 0.55 553.17-0.13 551.22-0.8 550-2.08 548.77-3.35 548.77-5.1L548.77-5.1Q548.77-6.5 549.6-7.38 550.42-8.25 551.62-8.25L551.62-8.25Q552.87-8.25 553.6-7.43 554.32-6.6 554.32-5.5L554.32-5.5Q554.32-5.15 554.25-4.75 554.17-4.35 553.97-3.95L553.97-3.95Q554.27-3.25 555.4-2.75 556.52-2.25 557.47-2.25L557.47-2.25Q559.82-2.25 560.87-3.3 561.92-4.35 561.92-5.9L561.92-5.9Q561.92-7 561.12-7.83 560.32-8.65 559.07-9.43 557.82-10.2 556.42-11L556.42-11Q554.37-12.2 552.9-13.3 551.42-14.4 550.67-15.63 549.92-16.85 549.92-18.5L549.92-18.5Q549.92-20.3 551.02-21.9 552.12-23.5 554.17-24.53 556.22-25.55 559.12-25.55L559.12-25.55Q561.07-25.55 562.92-24.93 564.77-24.3 565.97-23.1 567.17-21.9 567.17-20.25L567.17-20.25Q567.17-19.05 566.42-18.18 565.67-17.3 564.37-17.3L564.37-17.3Q563.17-17.3 562.45-18.1 561.72-18.9 561.72-20L561.72-20Q561.72-20.4 561.8-20.75 561.87-21.1 562.07-21.45L562.07-21.45Q561.72-22.1 560.85-22.45 559.97-22.8 558.92-22.8L558.92-22.8Q558.12-22.8 557.25-22.43 556.37-22.05 555.77-21.38 555.17-20.7 555.17-19.75L555.17-19.75Q555.17-18.95 555.57-18.35 555.97-17.75 556.97-17.05 557.97-16.35 559.67-15.35L559.67-15.35Q561.37-14.35 563.15-13.23 564.92-12.1 566.12-10.63 567.32-9.15 567.32-7L567.32-7Q567.32-4.8 566.05-3.1 564.77-1.4 562.52-0.43 560.27 0.55 557.42 0.55ZM606.6-25.55L606.6-25.55Q608.85-25.55 610.63-24.8 612.4-24.05 613.45-22.73 614.5-21.4 614.5-19.6L614.5-19.6Q614.5-18.25 613.73-17.38 612.95-16.5 611.65-16.5L611.65-16.5Q610.1-16.45 609.48-17.4 608.85-18.35 608.85-19.1L608.85-19.1Q608.85-19.55 608.98-20.1 609.1-20.65 609.4-21.15L609.4-21.15Q609.2-21.9 608.4-22.33 607.6-22.75 606.5-22.75L606.5-22.75Q604.7-22.75 603.55-21.65 602.4-20.55 601.73-18.85 601.05-17.15 600.75-15.23 600.45-13.3 600.45-11.6L600.45-11.6Q600.35-8.65 601.03-6.85 601.7-5.05 602.83-4.23 603.95-3.4 605.25-3.35L605.25-3.35Q606.3-3.3 607.58-3.7 608.85-4.1 610.1-5.33 611.35-6.55 612.35-8.9L612.35-8.9 614.85-7.7Q613.5-4.55 611.78-2.75 610.05-0.95 608.13-0.23 606.2 0.5 604.15 0.55L604.15 0.55Q599.75 0.5 597.08-2.15 594.4-4.8 594.4-10.35L594.4-10.35Q594.4-12.8 595.13-15.45 595.85-18.1 597.35-20.38 598.85-22.65 601.15-24.1 603.45-25.55 606.6-25.55ZM655.98-25.55L655.98-25.55Q657.38-25.55 659.23-25.3 661.08-25.05 662.98-24.55L662.98-24.55Q662.68-22.35 662.31-19.55 661.93-16.75 661.56-13.98 661.18-11.2 660.96-8.9 660.73-6.6 660.73-5.35L660.73-5.35Q660.73-4.4 660.93-3.9 661.13-3.4 661.68-3.4L661.68-3.4Q662.33-3.4 663.11-4.33 663.88-5.25 664.58-7.65L664.58-7.65 666.83-7Q666.68-6 666.18-4.7 665.68-3.4 664.86-2.2 664.03-1 662.83-0.23 661.63 0.55 660.03 0.55L660.03 0.55Q658.33 0.55 657.23-0.5 656.13-1.55 656.13-4L656.13-4Q656.13-4.9 656.26-6 656.38-7.1 656.58-8.15L656.58-8.15 656.48-8.15Q655.48-5.5 654.38-3.78 653.28-2.05 652.13-1.1 650.98-0.15 649.83 0.2 648.68 0.55 647.58 0.55L647.58 0.55Q644.83 0.55 642.93-1.6 641.03-3.75 641.03-8.4L641.03-8.4Q641.03-11.9 642.01-14.98 642.98-18.05 644.88-20.45 646.78-22.85 649.56-24.2 652.33-25.55 655.98-25.55ZM654.23-22.75L654.23-22.75Q652.53-22.75 651.18-21.73 649.83-20.7 648.88-18.82 647.93-16.95 647.46-14.35 646.98-11.75 646.98-8.55L646.98-8.55Q646.98-6.1 647.56-4.63 648.13-3.15 649.33-3.15L649.33-3.15Q650.53-3.15 651.63-4.35 652.73-5.55 653.63-7.6 654.53-9.65 655.23-12.18 655.93-14.7 656.38-17.32 656.83-19.95 656.88-22.35L656.88-22.35Q656.48-22.5 655.73-22.63 654.98-22.75 654.23-22.75ZM703.51 12.75L691.96 12.75 691.96 10.1Q693.26 10.1 693.86 9.4 694.46 8.7 694.71 7.48 694.96 6.25 695.06 4.75L695.06 4.75Q695.56-0.6 695.91-4.78 696.26-8.95 696.49-12 696.71-15.05 696.84-16.98 696.96-18.9 696.96-19.75L696.96-19.75Q696.96-20.7 696.74-21.15 696.51-21.6 696.01-21.6L696.01-21.6Q695.36-21.6 694.61-20.68 693.86-19.75 693.21-17.35L693.21-17.35 690.91-18Q691.11-19 691.56-20.3 692.01-21.6 692.81-22.8 693.61-24 694.79-24.78 695.96-25.55 697.56-25.55L697.56-25.55Q699.36-25.55 700.46-24.4 701.56-23.25 701.56-20.75L701.56-20.75Q701.56-19.65 701.44-18.73 701.31-17.8 701.16-16.85L701.16-16.85 701.26-16.85Q702.51-20.4 703.99-22.28 705.46-24.15 707.01-24.85 708.56-25.55 709.91-25.55L709.91-25.55Q712.31-25.55 713.91-24.3 715.51-23.05 716.31-20.9 717.11-18.75 717.11-15.95L717.11-15.95Q717.11-11.15 715.54-7.43 713.96-3.7 710.79-1.58 707.61 0.55 702.81 0.55L702.81 0.55Q702.41 0.55 701.91 0.53 701.41 0.5 700.96 0.45L700.96 0.45Q700.81 3.35 700.69 5.13 700.56 6.9 700.49 7.93 700.41 8.95 700.26 9.7L700.26 9.7Q701.06 9.6 701.99 9.58 702.91 9.55 703.51 9.55L703.51 9.55 703.51 12.75ZM703.46-2.2L703.46-2.2Q705.31-2.2 706.64-3.15 707.96-4.1 708.84-5.6 709.71-7.1 710.21-8.9 710.71-10.7 710.94-12.45 711.16-14.2 711.16-15.6L711.16-15.6Q711.16-17.6 710.86-18.98 710.56-20.35 709.94-21.05 709.31-21.75 708.36-21.75L708.36-21.75Q707.21-21.75 706.19-20.73 705.16-19.7 704.29-17.82 703.41-15.95 702.76-13.4 702.11-10.85 701.66-7.75L701.66-7.75Q701.51-6.55 701.36-5.28 701.21-4 701.11-2.6L701.11-2.6Q701.76-2.45 702.39-2.33 703.01-2.2 703.46-2.2ZM756.34-25.55L756.34-25.55Q758.39-25.55 760.07-24.93 761.74-24.3 762.69-22.95 763.64-21.6 763.64-19.45L763.64-19.45Q763.64-17.4 762.37-15.95 761.09-14.5 759.02-13.58 756.94-12.65 754.54-12.05 752.14-11.45 749.89-11.2L749.89-11.2Q749.89-8.25 750.54-6.53 751.19-4.8 752.32-4.08 753.44-3.35 754.79-3.35L754.79-3.35Q755.84-3.35 757.12-3.78 758.39-4.2 759.64-5.35 760.89-6.5 761.84-8.55L761.84-8.55 764.24-7.35Q762.84-4.3 761.14-2.58 759.44-0.85 757.54-0.15 755.64 0.55 753.59 0.55L753.59 0.55Q748.94 0.6 746.39-2.2 743.84-5 743.84-10.3L743.84-10.3Q743.84-12.9 744.59-15.58 745.34-18.25 746.87-20.5 748.39-22.75 750.74-24.15 753.09-25.55 756.34-25.55ZM755.74-22.8L755.74-22.8Q753.84-22.8 752.64-21.48 751.44-20.15 750.82-18.13 750.19-16.1 749.99-13.95L749.99-13.95Q752.69-14.4 754.54-15.28 756.39-16.15 757.39-17.35 758.39-18.55 758.39-20L758.39-20Q758.34-21.35 757.59-22.08 756.84-22.8 755.74-22.8Z" opacity="1" transform="matrix(1,0,0,1,0,0)" fill="#001f3f" class="slogan-text-1" data-fill-palette-color="quaternary" id="text-1"></path></svg></g></svg></g></svg></g></svg></g><g></g></svg></g><defs></defs></svg><rect width="356.12052" height="100.89221624272878" fill="none" stroke="none" visibility="hidden"></rect></g></svg></g></svg>