<svg xmlns="http://www.w3.org/2000/svg" xmlns:xlink="http://www.w3.org/1999/xlink" width="500" zoomAndPan="magnify" viewBox="0 0 375 374.999991" height="500" preserveAspectRatio="xMidYMid meet" version="1.0"><defs><g/><clipPath id="5ea5d053e7"><path d="M 11.417969 11.417969 L 363.917969 11.417969 L 363.917969 363.917969 L 11.417969 363.917969 Z M 11.417969 11.417969 " clip-rule="nonzero"/></clipPath></defs><rect x="-37.5" width="450" fill="#ffffff" y="-37.499999" height="449.999989" fill-opacity="1"/><rect x="-37.5" width="450" fill="#ffffff" y="-37.499999" height="449.999989" fill-opacity="1"/><g clip-path="url(#5ea5d053e7)"><path fill="#000000" d="M 28.871094 346.476562 L 346.46875 346.476562 L 346.46875 28.875 L 28.871094 28.875 Z M 363.917969 363.925781 L 11.417969 363.925781 L 11.417969 11.425781 L 363.917969 11.425781 L 363.917969 363.925781 " fill-opacity="1" fill-rule="nonzero"/></g><g fill="#000000" fill-opacity="1"><g transform="translate(29.388522, 189.918456)"><g><path d="M 102.484375 -117.1875 C 89.035156 -124.601562 77.34375 -128.3125 67.40625 -128.3125 C 60.6875 -128.3125 55.472656 -126.976562 51.765625 -124.3125 C 48.054688 -121.65625 46.203125 -117.664062 46.203125 -112.34375 C 46.203125 -107.445312 48.894531 -103.144531 54.28125 -99.4375 C 59.675781 -95.726562 66.851562 -92.191406 75.8125 -88.828125 C 83.09375 -86.171875 89.320312 -83.125 94.5 -79.6875 C 99.675781 -76.257812 103.976562 -71.535156 107.40625 -65.515625 C 110.84375 -59.492188 112.5625 -51.863281 112.5625 -42.625 C 112.5625 -34.644531 110.492188 -27.257812 106.359375 -20.46875 C 102.234375 -13.6875 96.179688 -8.296875 88.203125 -4.296875 C 80.222656 -0.304688 70.703125 1.6875 59.640625 1.6875 C 50.398438 1.6875 41.226562 0.320312 32.125 -2.40625 C 23.03125 -5.144531 14.5625 -9.3125 6.71875 -14.90625 L 20.15625 -38.640625 C 25.476562 -34.722656 31.566406 -31.503906 38.421875 -28.984375 C 45.285156 -26.460938 51.445312 -25.203125 56.90625 -25.203125 C 63.34375 -25.203125 68.941406 -26.566406 73.703125 -29.296875 C 78.460938 -32.023438 80.84375 -36.46875 80.84375 -42.625 C 80.84375 -50.601562 73.351562 -57.535156 58.375 -63.421875 C 49.5625 -66.921875 42.210938 -70.28125 36.328125 -73.5 C 30.453125 -76.71875 25.378906 -81.335938 21.109375 -87.359375 C 16.835938 -93.378906 14.703125 -100.941406 14.703125 -110.046875 C 14.703125 -123.335938 19.078125 -134.039062 27.828125 -142.15625 C 36.578125 -150.28125 48.234375 -154.695312 62.796875 -155.40625 C 74.273438 -155.40625 83.863281 -154.109375 91.5625 -151.515625 C 99.257812 -148.921875 106.75 -145.242188 114.03125 -140.484375 Z M 102.484375 -117.1875 "/></g></g></g><g fill="#000000" fill-opacity="1"><g transform="translate(117.568355, 263.999983)"><g><path d="M 125.375 -154.5625 L 125.375 -125.15625 L 50.40625 -125.15625 L 50.40625 -92.1875 L 116.765625 -92.1875 L 116.765625 -62.796875 L 50.40625 -62.796875 L 50.40625 -29.40625 L 128.3125 -29.40625 L 128.3125 0 L 19.953125 0 L 19.953125 -154.5625 Z M 125.375 -154.5625 "/></g></g></g><g fill="#000000" fill-opacity="1"><g transform="translate(222.75125, 338.643362)"><g><path d="M 116.546875 -154.5625 L 116.546875 -125.15625 L 50.40625 -125.15625 L 50.40625 -90.09375 L 107.734375 -90.09375 L 107.734375 -60.6875 L 50.40625 -60.6875 L 50.40625 0 L 19.953125 0 L 19.953125 -154.5625 Z M 116.546875 -154.5625 "/></g></g></g></svg>