<svg xmlns="http://www.w3.org/2000/svg" xmlns:xlink="http://www.w3.org/1999/xlink" width="1080" zoomAndPan="magnify" viewBox="0 0 810 229.499994" height="306" preserveAspectRatio="xMidYMid meet" version="1.0"><defs><clipPath id="09a232a468"><path d="M 0.878906 0 L 809.117188 0 L 809.117188 229 L 0.878906 229 Z M 0.878906 0 " clip-rule="nonzero"/></clipPath><clipPath id="b2889abcd7"><path d="M 0.878906 0.117188 L 809.117188 0.117188 L 809.117188 229 L 0.878906 229 Z M 0.878906 0.117188 " clip-rule="nonzero"/></clipPath><clipPath id="8cb616bdaa"><path d="M 45.5 44.851562 L 764.695312 44.851562 L 764.695312 121.9375 L 45.5 121.9375 Z M 45.5 44.851562 " clip-rule="nonzero"/></clipPath><clipPath id="3bfad71c81"><path d="M 45.5 136.847656 L 764.695312 136.847656 L 764.695312 184.488281 L 45.5 184.488281 Z M 45.5 136.847656 " clip-rule="nonzero"/></clipPath></defs><g clip-path="url(#09a232a468)"><path fill="#ffffff" d="M 0.878906 0 L 809.121094 0 L 809.121094 229 L 0.878906 229 Z M 0.878906 0 " fill-opacity="1" fill-rule="nonzero"/><path fill="#ffffff" d="M 0.878906 0 L 809.121094 0 L 809.121094 229 L 0.878906 229 Z M 0.878906 0 " fill-opacity="1" fill-rule="nonzero"/><rect x="-81" width="972" fill="#000000" y="-22.949999" height="275.399992" fill-opacity="1"/></g><g clip-path="url(#b2889abcd7)"><path fill="#ffffff" d="M 0.765625 0.117188 L 809.429688 0.117188 L 809.429688 229.21875 L 0.765625 229.21875 Z M 0.765625 0.117188 " fill-opacity="1" fill-rule="nonzero"/></g><path fill="#000000" d="M 8.222656 7.574219 L 801.972656 7.574219 L 801.972656 221.761719 L 8.222656 221.761719 Z M 8.222656 7.574219 " fill-opacity="1" fill-rule="nonzero"/><path fill="#ffffff" d="M 23.132812 22.484375 L 787.0625 22.484375 L 787.0625 206.851562 L 23.132812 206.851562 Z M 23.132812 22.484375 " fill-opacity="1" fill-rule="nonzero"/><g clip-path="url(#8cb616bdaa)"><path fill="#000000" d="M 96.488281 54.425781 L 91.003906 65.492188 C 88.210938 63.964844 85.371094 62.703125 82.488281 61.703125 C 79.589844 60.707031 76.875 60.207031 74.351562 60.207031 C 71.226562 60.207031 68.765625 60.839844 66.96875 62.101562 C 65.175781 63.367188 64.277344 65.261719 64.277344 67.789062 C 64.277344 69.515625 64.960938 71.058594 66.332031 72.414062 C 67.6875 73.785156 69.449219 75 71.617188 76.066406 C 73.769531 77.128906 76.011719 78.09375 78.339844 78.957031 C 80.464844 79.753906 82.578125 80.699219 84.679688 81.789062 C 86.769531 82.890625 88.644531 84.253906 90.304688 85.878906 C 91.96875 87.511719 93.296875 89.539062 94.292969 91.960938 C 95.292969 94.394531 95.789062 97.371094 95.789062 100.894531 C 95.789062 104.617188 94.824219 108.074219 92.898438 111.265625 C 90.96875 114.457031 88.144531 117.035156 84.421875 119.003906 C 80.699219 120.960938 76.113281 121.9375 70.660156 121.9375 C 67.867188 121.9375 65.027344 121.652344 62.144531 121.078125 C 59.246094 120.519531 56.398438 119.65625 53.609375 118.484375 C 50.816406 117.328125 48.121094 115.855469 45.53125 114.058594 L 51.914062 102.789062 C 53.640625 104.054688 55.523438 105.164062 57.554688 106.121094 C 59.578125 107.089844 61.617188 107.84375 63.679688 108.375 C 65.742188 108.90625 67.636719 109.171875 69.363281 109.171875 C 71.09375 109.171875 72.839844 108.917969 74.609375 108.414062 C 76.363281 107.921875 77.828125 107.078125 78.996094 105.882812 C 80.152344 104.683594 80.730469 103.023438 80.730469 100.894531 C 80.730469 99.433594 80.253906 98.101562 79.296875 96.90625 C 78.324219 95.710938 77.023438 94.613281 75.386719 93.617188 C 73.765625 92.617188 71.988281 91.753906 70.0625 91.023438 C 67.800781 90.160156 65.472656 89.160156 63.082031 88.03125 C 60.6875 86.902344 58.449219 85.519531 56.359375 83.882812 C 54.257812 82.261719 52.5625 80.234375 51.273438 77.800781 C 49.972656 75.378906 49.320312 72.40625 49.320312 68.882812 C 49.320312 64.628906 50.269531 60.941406 52.171875 57.816406 C 54.058594 54.691406 56.730469 52.210938 60.1875 50.375 C 63.644531 48.554688 67.636719 47.542969 72.15625 47.34375 C 78.074219 47.34375 82.878906 48.042969 86.574219 49.4375 C 90.257812 50.835938 93.5625 52.496094 96.488281 54.425781 Z M 105.464844 84.539062 C 105.464844 79.488281 106.425781 74.703125 108.355469 70.179688 C 110.28125 65.660156 112.957031 61.652344 116.371094 58.15625 C 119.804688 54.671875 123.777344 51.933594 128.300781 49.9375 C 132.820312 47.941406 137.671875 46.945312 142.859375 46.945312 C 147.976562 46.945312 152.796875 47.941406 157.320312 49.9375 C 161.839844 51.933594 165.839844 54.671875 169.324219 58.15625 C 172.820312 61.652344 175.546875 65.660156 177.503906 70.179688 C 179.46875 74.703125 180.453125 79.488281 180.453125 84.539062 C 180.453125 89.726562 179.46875 94.578125 177.503906 99.101562 C 175.546875 103.621094 172.820312 107.589844 169.324219 111.007812 C 165.839844 114.4375 161.839844 117.117188 157.320312 119.042969 C 152.796875 120.972656 147.976562 121.9375 142.859375 121.9375 C 137.671875 121.9375 132.820312 120.972656 128.300781 119.042969 C 123.777344 117.117188 119.804688 114.4375 116.371094 111.007812 C 112.957031 107.589844 110.28125 103.621094 108.355469 99.101562 C 106.425781 94.578125 105.464844 89.726562 105.464844 84.539062 Z M 120.421875 84.539062 C 120.421875 87.796875 121 90.835938 122.15625 93.65625 C 123.328125 96.488281 124.957031 98.980469 127.042969 101.132812 C 129.144531 103.300781 131.570312 104.984375 134.324219 106.179688 C 137.089844 107.378906 140.101562 107.976562 143.355469 107.976562 C 146.480469 107.976562 149.386719 107.378906 152.074219 106.179688 C 154.773438 104.984375 157.117188 103.300781 159.113281 101.132812 C 161.109375 98.980469 162.671875 96.488281 163.800781 93.65625 C 164.929688 90.835938 165.496094 87.796875 165.496094 84.539062 C 165.496094 81.21875 164.910156 78.125 163.742188 75.265625 C 162.582031 72.40625 160.988281 69.894531 158.953125 67.726562 C 156.933594 65.574219 154.558594 63.898438 151.832031 62.703125 C 149.109375 61.503906 146.148438 60.90625 142.957031 60.90625 C 139.765625 60.90625 136.808594 61.503906 134.082031 62.703125 C 131.355469 63.898438 128.964844 65.574219 126.902344 67.726562 C 124.84375 69.894531 123.246094 72.40625 122.117188 75.265625 C 120.984375 78.125 120.421875 81.21875 120.421875 84.539062 Z M 194.914062 47.742188 L 217.152344 47.742188 C 221.726562 47.742188 225.8125 48.320312 229.417969 49.480469 C 233.007812 50.648438 236.011719 52.3125 238.433594 54.464844 C 240.867188 56.632812 242.707031 59.226562 243.957031 62.242188 C 245.234375 65.273438 245.871094 68.683594 245.871094 72.472656 C 245.871094 75.464844 245.417969 78.457031 244.515625 81.449219 C 243.625 84.441406 242.160156 87.167969 240.128906 89.625 C 238.105469 92.085938 235.433594 94.0625 232.109375 95.550781 C 228.785156 97.050781 224.664062 97.804688 219.746094 97.804688 L 209.375 97.804688 L 209.375 121.140625 L 194.914062 121.140625 Z M 209.375 83.84375 L 219.644531 83.84375 C 221.839844 83.84375 223.667969 83.476562 225.128906 82.746094 C 226.59375 82.015625 227.734375 81.082031 228.558594 79.953125 C 229.398438 78.824219 229.996094 77.640625 230.355469 76.402344 C 230.726562 75.179688 230.914062 74.035156 230.914062 72.972656 C 230.914062 72.175781 230.792969 71.160156 230.554688 69.921875 C 230.328125 68.699219 229.847656 67.457031 229.117188 66.191406 C 228.375 64.929688 227.257812 63.863281 225.769531 63 C 224.265625 62.136719 222.257812 61.703125 219.746094 61.703125 L 209.375 61.703125 Z M 215.953125 93.214844 L 233.207031 92.816406 L 251.355469 121.140625 L 234.484375 121.140625 Z M 307.980469 54.425781 L 302.492188 65.492188 C 299.703125 63.964844 296.863281 62.703125 293.976562 61.703125 C 291.078125 60.707031 288.367188 60.207031 285.839844 60.207031 C 282.714844 60.207031 280.253906 60.839844 278.460938 62.101562 C 276.664062 63.367188 275.769531 65.261719 275.769531 67.789062 C 275.769531 69.515625 276.453125 71.058594 277.824219 72.414062 C 279.179688 73.785156 280.941406 75 283.109375 76.066406 C 285.261719 77.128906 287.503906 78.09375 289.828125 78.957031 C 291.957031 79.753906 294.070312 80.699219 296.171875 81.789062 C 298.257812 82.890625 300.132812 84.253906 301.796875 85.878906 C 303.457031 87.511719 304.789062 89.539062 305.785156 91.960938 C 306.78125 94.394531 307.28125 97.371094 307.28125 100.894531 C 307.28125 104.617188 306.316406 108.074219 304.386719 111.265625 C 302.460938 114.457031 299.636719 117.035156 295.914062 119.003906 C 292.1875 120.960938 287.601562 121.9375 282.152344 121.9375 C 279.359375 121.9375 276.519531 121.652344 273.632812 121.078125 C 270.734375 120.519531 267.890625 119.65625 265.097656 118.484375 C 262.304688 117.328125 259.613281 115.855469 257.019531 114.058594 L 263.402344 102.789062 C 265.132812 104.054688 267.011719 105.164062 269.046875 106.121094 C 271.066406 107.089844 273.109375 107.84375 275.171875 108.375 C 277.230469 108.90625 279.125 109.171875 280.855469 109.171875 C 282.582031 109.171875 284.332031 108.917969 286.097656 108.414062 C 287.855469 107.921875 289.316406 107.078125 290.488281 105.882812 C 291.644531 104.683594 292.222656 103.023438 292.222656 100.894531 C 292.222656 99.433594 291.742188 98.101562 290.785156 96.90625 C 289.816406 95.710938 288.519531 94.613281 286.898438 93.617188 C 285.261719 92.617188 283.480469 91.753906 281.550781 91.023438 C 279.292969 90.160156 276.964844 89.160156 274.570312 88.03125 C 272.179688 86.902344 269.9375 85.519531 267.851562 83.882812 C 265.75 82.261719 264.054688 80.234375 262.765625 77.800781 C 261.460938 75.378906 260.808594 72.40625 260.808594 68.882812 C 260.808594 64.628906 261.761719 60.941406 263.660156 57.816406 C 265.550781 54.691406 268.222656 52.210938 271.679688 50.375 C 275.136719 48.554688 279.125 47.542969 283.644531 47.34375 C 289.5625 47.34375 294.371094 48.042969 298.066406 49.4375 C 301.75 50.835938 305.054688 52.496094 307.980469 54.425781 Z M 321.441406 121.140625 L 321.441406 47.742188 L 335.902344 47.742188 L 335.902344 121.140625 Z M 387.257812 121.140625 L 387.257812 47.742188 L 437.316406 47.742188 L 437.316406 61.703125 L 401.71875 61.703125 L 401.71875 77.359375 L 433.230469 77.359375 L 433.230469 91.320312 L 401.71875 91.320312 L 401.71875 107.179688 L 438.714844 107.179688 L 438.714844 121.140625 Z M 486.0625 121.140625 L 486.0625 47.742188 L 531.933594 47.742188 L 531.933594 61.703125 L 500.523438 61.703125 L 500.523438 78.359375 L 527.746094 78.359375 L 527.746094 92.320312 L 500.523438 92.320312 L 500.523438 121.140625 Z M 545.894531 121.140625 L 545.894531 47.742188 L 560.355469 47.742188 L 560.355469 121.140625 Z M 585.285156 121.140625 L 571.027344 121.140625 L 604.132812 44.851562 L 604.929688 44.851562 L 638.039062 121.140625 L 621.285156 121.140625 L 600.144531 67.488281 L 610.613281 60.308594 Z M 589.175781 106.777344 L 593.664062 94.613281 L 615.699219 94.613281 L 620.785156 106.777344 Z M 648.6875 47.742188 L 670.230469 47.742188 C 677.875 47.742188 683.957031 49.285156 688.476562 52.371094 C 693 55.46875 695.257812 60.074219 695.257812 66.191406 C 695.257812 70.710938 694.148438 74.480469 691.929688 77.5 C 689.695312 80.53125 686.667969 82.792969 682.855469 84.28125 C 679.023438 85.785156 674.648438 86.535156 669.730469 86.535156 L 667.4375 78.757812 C 673.488281 78.757812 678.859375 79.589844 683.550781 81.25 C 688.230469 82.914062 691.933594 85.285156 694.660156 88.371094 C 697.386719 91.46875 698.75 95.179688 698.75 99.5 C 698.75 103.488281 698.039062 106.859375 696.617188 109.609375 C 695.179688 112.375 693.25 114.605469 690.832031 116.292969 C 688.398438 117.996094 685.652344 119.222656 682.59375 119.980469 C 679.535156 120.753906 676.378906 121.140625 673.121094 121.140625 L 648.6875 121.140625 Z M 663.148438 77.761719 L 671.925781 77.761719 C 674.78125 77.761719 676.898438 76.894531 678.265625 75.167969 C 679.621094 73.4375 680.300781 71.476562 680.300781 69.285156 C 680.300781 66.757812 679.457031 64.863281 677.769531 63.597656 C 676.066406 62.335938 673.785156 61.703125 670.925781 61.703125 L 663.148438 61.703125 Z M 663.148438 107.675781 L 672.421875 107.675781 C 674.550781 107.675781 676.476562 107.390625 678.207031 106.820312 C 679.933594 106.261719 681.296875 105.363281 682.296875 104.125 C 683.292969 102.902344 683.792969 101.359375 683.792969 99.5 C 683.792969 97.371094 683.191406 95.757812 681.996094 94.652344 C 680.800781 93.5625 679.257812 92.796875 677.367188 92.359375 C 675.46875 91.933594 673.488281 91.722656 671.425781 91.722656 L 663.148438 91.722656 Z M 713.210938 121.140625 L 713.210938 47.742188 L 763.269531 47.742188 L 763.269531 61.703125 L 727.667969 61.703125 L 727.667969 77.359375 L 759.179688 77.359375 L 759.179688 91.320312 L 727.667969 91.320312 L 727.667969 107.179688 L 764.664062 107.179688 L 764.664062 121.140625 Z M 713.210938 121.140625 " fill-opacity="1" fill-rule="nonzero"/></g><g clip-path="url(#3bfad71c81)"><path fill="#000000" d="M 59.65625 139.347656 C 62.515625 139.347656 64.90625 139.695312 66.824219 140.386719 C 68.742188 141.078125 70.167969 142.121094 71.097656 143.519531 C 72.023438 144.921875 72.40625 146.738281 72.25 148.96875 C 72.15625 150.257812 71.792969 151.507812 71.164062 152.714844 C 70.535156 153.929688 69.59375 155.007812 68.335938 155.949219 C 67.078125 156.894531 65.425781 157.632812 63.382812 158.167969 C 63.726562 158.417969 64.035156 158.660156 64.304688 158.894531 C 64.570312 159.132812 64.820312 159.367188 65.0625 159.601562 C 65.292969 159.839844 65.53125 160.117188 65.769531 160.433594 C 66 160.746094 66.242188 161.109375 66.496094 161.515625 L 68.804688 165.429688 C 69.402344 166.40625 69.949219 167.214844 70.4375 167.855469 C 70.921875 168.503906 71.441406 168.992188 71.996094 169.316406 C 72.542969 169.652344 73.207031 169.832031 73.996094 169.863281 L 73.851562 172.460938 L 66.824219 172.460938 C 66.257812 171.988281 65.6875 171.34375 65.109375 170.527344 C 64.523438 169.707031 63.949219 168.78125 63.382812 167.742188 L 60.316406 162.320312 C 59.9375 161.660156 59.578125 161.035156 59.230469 160.449219 C 58.886719 159.871094 58.507812 159.378906 58.097656 158.96875 C 57.785156 159 57.453125 159.015625 57.109375 159.015625 C 56.761719 159.015625 56.441406 159.007812 56.148438 158.988281 C 55.84375 158.976562 55.566406 158.96875 55.316406 158.96875 L 54.984375 165.382812 C 54.953125 166.265625 54.902344 167.066406 54.824219 167.789062 C 54.742188 168.511719 54.671875 169.078125 54.609375 169.488281 C 54.953125 169.457031 55.371094 169.429688 55.863281 169.414062 C 56.347656 169.398438 56.820312 169.382812 57.277344 169.367188 C 57.730469 169.351562 58.097656 169.347656 58.382812 169.347656 L 58.242188 172.460938 L 45.503906 172.460938 L 45.648438 169.863281 C 46.527344 169.832031 47.210938 169.683594 47.695312 169.414062 C 48.183594 169.148438 48.550781 168.675781 48.789062 167.996094 C 49.019531 167.324219 49.152344 166.390625 49.183594 165.195312 L 50.175781 146.375 C 50.238281 145.589844 50.308594 144.835938 50.390625 144.113281 C 50.46875 143.390625 50.535156 142.824219 50.601562 142.414062 C 50.066406 142.445312 49.453125 142.46875 48.761719 142.480469 C 48.070312 142.5 47.503906 142.523438 47.0625 142.554688 L 47.25 139.441406 C 49.328125 139.410156 51.394531 139.386719 53.457031 139.367188 C 55.515625 139.355469 57.582031 139.347656 59.65625 139.347656 Z M 59.417969 142.132812 C 58.601562 142.132812 57.953125 142.257812 57.46875 142.507812 C 56.976562 142.761719 56.621094 143.199219 56.402344 143.828125 C 56.179688 144.457031 56.039062 145.324219 55.976562 146.421875 L 55.457031 156 C 55.867188 156.03125 56.277344 156.0625 56.683594 156.09375 C 57.09375 156.125 57.515625 156.140625 57.957031 156.140625 C 59.71875 156.109375 61.191406 155.839844 62.371094 155.339844 C 63.546875 154.835938 64.449219 154.046875 65.078125 152.980469 C 65.707031 151.910156 66.070312 150.542969 66.164062 148.875 C 66.226562 147.460938 66.0625 146.3125 65.675781 145.433594 C 65.277344 144.550781 64.75 143.867188 64.089844 143.375 C 63.429688 142.890625 62.683594 142.5625 61.855469 142.386719 C 61.015625 142.214844 60.207031 142.132812 59.417969 142.132812 Z M 109.773438 148.355469 C 111.0625 148.355469 112.238281 148.550781 113.292969 148.941406 C 114.34375 149.339844 115.167969 149.960938 115.765625 150.808594 C 116.363281 151.660156 116.660156 152.757812 116.660156 154.113281 C 116.660156 155.402344 116.261719 156.5 115.464844 157.414062 C 114.65625 158.324219 113.605469 159.070312 112.304688 159.648438 C 110.996094 160.234375 109.585938 160.714844 108.078125 161.09375 C 106.566406 161.46875 105.105469 161.738281 103.691406 161.894531 C 103.691406 163.75 103.894531 165.21875 104.304688 166.300781 C 104.710938 167.386719 105.273438 168.15625 105.984375 168.609375 C 106.6875 169.070312 107.464844 169.300781 108.3125 169.300781 C 108.972656 169.300781 109.707031 169.164062 110.511719 168.894531 C 111.308594 168.628906 112.101562 168.136719 112.886719 167.414062 C 113.675781 166.6875 114.367188 165.683594 114.964844 164.394531 L 117.226562 165.527344 C 116.347656 167.445312 115.371094 168.945312 114.304688 170.027344 C 113.234375 171.113281 112.101562 171.878906 110.90625 172.316406 C 109.710938 172.757812 108.46875 172.976562 107.179688 172.976562 C 104.257812 173.007812 101.992188 172.144531 100.386719 170.382812 C 98.785156 168.625 97.984375 166.078125 97.984375 162.742188 C 97.984375 161.109375 98.21875 159.449219 98.691406 157.761719 C 99.164062 156.082031 99.878906 154.535156 100.839844 153.121094 C 101.796875 151.707031 103.015625 150.558594 104.492188 149.679688 C 105.96875 148.796875 107.730469 148.355469 109.773438 148.355469 Z M 109.207031 150.953125 C 108.015625 150.953125 107.039062 151.367188 106.285156 152.195312 C 105.53125 153.03125 104.957031 154.085938 104.566406 155.355469 C 104.171875 156.632812 103.910156 157.949219 103.785156 159.300781 C 105.484375 159.015625 106.914062 158.597656 108.078125 158.046875 C 109.238281 157.5 110.136719 156.847656 110.765625 156.09375 C 111.394531 155.339844 111.707031 154.503906 111.707031 153.59375 C 111.675781 152.742188 111.425781 152.089844 110.953125 151.628906 C 110.480469 151.179688 109.902344 150.953125 109.207031 150.953125 Z M 156.214844 148.355469 C 157.09375 148.355469 158.117188 148.4375 159.28125 148.59375 C 160.445312 148.75 161.625 148.984375 162.816406 149.300781 C 162.628906 150.683594 162.417969 152.257812 162.1875 154.015625 C 161.945312 155.777344 161.710938 157.53125 161.480469 159.273438 C 161.238281 161.019531 161.050781 162.617188 160.914062 164.0625 C 160.769531 165.511719 160.695312 166.625 160.695312 167.414062 C 160.695312 168.011719 160.757812 168.464844 160.882812 168.78125 C 161.011719 169.09375 161.246094 169.253906 161.59375 169.253906 C 162 169.253906 162.449219 168.960938 162.941406 168.375 C 163.425781 167.796875 163.886719 166.753906 164.328125 165.242188 L 166.449219 165.855469 C 166.355469 166.484375 166.152344 167.207031 165.835938 168.027344 C 165.523438 168.84375 165.105469 169.628906 164.589844 170.382812 C 164.070312 171.140625 163.429688 171.757812 162.675781 172.242188 C 161.921875 172.734375 161.042969 172.976562 160.035156 172.976562 C 158.964844 172.976562 158.085938 172.648438 157.394531 171.988281 C 156.703125 171.328125 156.355469 170.226562 156.355469 168.6875 C 156.355469 168.121094 156.398438 167.492188 156.480469 166.800781 C 156.554688 166.109375 156.65625 165.429688 156.78125 164.769531 L 156.6875 164.769531 C 156.058594 166.4375 155.398438 167.8125 154.707031 168.894531 C 154.015625 169.980469 153.304688 170.824219 152.582031 171.421875 C 151.859375 172.019531 151.136719 172.429688 150.414062 172.648438 C 149.691406 172.867188 148.984375 172.976562 148.289062 172.976562 C 146.5625 172.976562 145.097656 172.300781 143.90625 170.949219 C 142.710938 169.597656 142.113281 167.460938 142.113281 164.535156 C 142.113281 162.335938 142.421875 160.265625 143.035156 158.328125 C 143.648438 156.398438 144.550781 154.675781 145.742188 153.167969 C 146.9375 151.660156 148.410156 150.480469 150.160156 149.628906 C 151.902344 148.78125 153.917969 148.355469 156.214844 148.355469 Z M 154.5625 151 C 153.496094 151 152.535156 151.320312 151.6875 151.960938 C 150.835938 152.609375 150.113281 153.523438 149.515625 154.707031 C 148.917969 155.882812 148.472656 157.289062 148.175781 158.921875 C 147.875 160.558594 147.726562 162.382812 147.726562 164.394531 C 147.726562 165.933594 147.90625 167.167969 148.273438 168.089844 C 148.628906 169.023438 149.1875 169.488281 149.941406 169.488281 C 150.695312 169.488281 151.417969 169.109375 152.113281 168.355469 C 152.804688 167.601562 153.433594 166.578125 153.996094 165.289062 C 154.5625 164 155.066406 162.5625 155.507812 160.96875 C 155.949219 159.386719 156.308594 157.769531 156.59375 156.121094 C 156.875 154.46875 157.03125 152.886719 157.0625 151.375 C 156.8125 151.28125 156.449219 151.195312 155.980469 151.113281 C 155.507812 151.035156 155.035156 151 154.5625 151 Z M 196.851562 172.976562 C 195.3125 172.976562 194.039062 172.574219 193.03125 171.769531 C 192.027344 170.972656 191.28125 169.898438 190.796875 168.542969 C 190.308594 167.191406 190.0625 165.667969 190.0625 163.96875 C 190.0625 160.949219 190.542969 158.269531 191.503906 155.921875 C 192.460938 153.582031 193.929688 151.738281 195.910156 150.386719 C 197.890625 149.035156 200.375 148.355469 203.363281 148.355469 C 203.675781 148.355469 204.085938 148.363281 204.589844 148.375 C 205.09375 148.394531 205.484375 148.4375 205.769531 148.5 C 205.894531 147.148438 206.011719 146 206.125 145.054688 C 206.234375 144.113281 206.328125 143.308594 206.410156 142.648438 C 206.484375 141.988281 206.570312 141.472656 206.664062 141.09375 C 206.128906 141.125 205.542969 141.148438 204.898438 141.160156 C 204.253906 141.179688 203.722656 141.203125 203.316406 141.234375 L 203.503906 138.214844 C 204.949219 138.214844 206.128906 138.148438 207.042969 138.007812 C 207.953125 137.863281 208.671875 137.683594 209.191406 137.460938 C 209.707031 137.242188 210.074219 137.039062 210.296875 136.847656 L 212.464844 136.847656 C 212.183594 139.082031 211.894531 141.445312 211.597656 143.941406 C 211.296875 146.445312 210.972656 149.160156 210.625 152.082031 C 210.40625 154.160156 210.179688 156.191406 209.945312 158.1875 C 209.707031 160.1875 209.519531 161.988281 209.378906 163.59375 C 209.234375 165.195312 209.164062 166.5 209.164062 167.507812 C 209.164062 168.105469 209.234375 168.542969 209.378906 168.828125 C 209.519531 169.109375 209.746094 169.253906 210.058594 169.253906 C 210.46875 169.253906 210.902344 168.960938 211.363281 168.375 C 211.816406 167.796875 212.261719 166.753906 212.703125 165.242188 L 214.871094 165.855469 C 214.746094 166.484375 214.535156 167.207031 214.238281 168.027344 C 213.9375 168.84375 213.535156 169.628906 213.03125 170.382812 C 212.527344 171.140625 211.910156 171.757812 211.171875 172.242188 C 210.429688 172.734375 209.558594 172.976562 208.550781 172.976562 C 207.449219 172.976562 206.554688 172.648438 205.863281 171.988281 C 205.171875 171.328125 204.824219 170.226562 204.824219 168.6875 C 204.824219 167.960938 204.855469 167.316406 204.917969 166.753906 C 204.980469 166.1875 205.074219 165.527344 205.203125 164.769531 L 205.109375 164.769531 C 204.320312 166.972656 203.457031 168.671875 202.511719 169.863281 C 201.570312 171.058594 200.609375 171.878906 199.636719 172.316406 C 198.660156 172.757812 197.734375 172.976562 196.851562 172.976562 Z M 198.363281 169.394531 C 199.210938 169.394531 200.011719 168.9375 200.769531 168.027344 C 201.523438 167.113281 202.214844 165.886719 202.84375 164.347656 C 203.472656 162.804688 203.976562 161.09375 204.351562 159.207031 C 204.605469 158.074219 204.808594 156.863281 204.964844 155.574219 C 205.125 154.285156 205.28125 152.902344 205.4375 151.421875 C 205.125 151.296875 204.683594 151.195312 204.117188 151.113281 C 203.550781 151.035156 203.078125 151 202.703125 151 C 201.539062 151 200.546875 151.289062 199.730469 151.867188 C 198.914062 152.453125 198.246094 153.222656 197.730469 154.175781 C 197.207031 155.140625 196.800781 156.1875 196.503906 157.320312 C 196.203125 158.449219 196 159.574219 195.890625 160.6875 C 195.777344 161.804688 195.722656 162.804688 195.722656 163.6875 C 195.722656 165.480469 195.941406 166.878906 196.382812 167.882812 C 196.820312 168.890625 197.480469 169.394531 198.363281 169.394531 Z M 241.832031 166.609375 C 243.121094 166.578125 244.074219 167.003906 244.691406 167.882812 C 245.300781 168.765625 245.574219 169.847656 245.511719 171.140625 C 245.511719 172.082031 245.335938 173.113281 244.992188 174.234375 C 244.644531 175.347656 244.140625 176.492188 243.480469 177.675781 C 242.820312 178.851562 241.988281 180.007812 240.980469 181.136719 L 239.425781 179.957031 C 239.835938 179.457031 240.269531 178.789062 240.726562 177.960938 C 241.179688 177.121094 241.5625 176.226562 241.878906 175.269531 C 242.191406 174.308594 242.351562 173.386719 242.351562 172.507812 C 242.160156 172.539062 241.988281 172.570312 241.832031 172.601562 C 241.675781 172.632812 241.5 172.648438 241.3125 172.648438 C 240.558594 172.648438 239.90625 172.402344 239.359375 171.914062 C 238.804688 171.429688 238.53125 170.746094 238.53125 169.863281 C 238.59375 168.953125 238.933594 168.183594 239.546875 167.554688 C 240.160156 166.925781 240.917969 166.609375 241.832031 166.609375 Z M 318.308594 173.214844 C 317.113281 173.214844 315.765625 173.035156 314.269531 172.675781 C 312.777344 172.3125 311.4375 171.75 310.242188 170.996094 L 310.289062 172.882812 L 307.035156 172.882812 L 307.503906 162.175781 L 310.195312 162.175781 C 310.320312 163.96875 310.761719 165.46875 311.515625 166.675781 C 312.269531 167.890625 313.265625 168.796875 314.503906 169.394531 C 315.75 169.992188 317.128906 170.289062 318.636719 170.289062 C 319.800781 170.289062 320.855469 170.074219 321.796875 169.648438 C 322.742188 169.226562 323.496094 168.644531 324.0625 167.902344 C 324.628906 167.167969 324.941406 166.328125 325.003906 165.382812 C 325.066406 164.125 324.722656 163.078125 323.96875 162.242188 C 323.210938 161.414062 322.238281 160.707031 321.042969 160.121094 C 319.847656 159.542969 318.605469 158.96875 317.316406 158.402344 C 315.523438 157.648438 313.878906 156.800781 312.382812 155.855469 C 310.890625 154.914062 309.730469 153.773438 308.890625 152.433594 C 308.0625 151.097656 307.695312 149.441406 307.789062 147.460938 C 307.851562 146.550781 308.078125 145.582031 308.46875 144.554688 C 308.863281 143.535156 309.488281 142.585938 310.335938 141.707031 C 311.183594 140.828125 312.300781 140.101562 313.683594 139.539062 C 315.066406 138.972656 316.78125 138.6875 318.824219 138.6875 C 320.050781 138.6875 321.402344 138.867188 322.882812 139.226562 C 324.359375 139.589844 325.632812 140.183594 326.703125 141 L 326.65625 139.019531 L 329.863281 139.019531 L 329.34375 149.820312 L 326.703125 149.820312 C 326.578125 148.152344 326.199219 146.695312 325.570312 145.453125 C 324.941406 144.214844 324.066406 143.253906 322.949219 142.574219 C 321.835938 141.902344 320.476562 141.566406 318.871094 141.566406 C 317.332031 141.566406 316.019531 142.003906 314.929688 142.886719 C 313.847656 143.765625 313.277344 144.851562 313.214844 146.140625 C 313.179688 147.210938 313.433594 148.128906 313.96875 148.894531 C 314.503906 149.667969 315.304688 150.375 316.375 151.015625 C 317.441406 151.664062 318.746094 152.320312 320.289062 152.980469 C 321.484375 153.484375 322.695312 154.046875 323.917969 154.675781 C 325.144531 155.304688 326.277344 156.035156 327.316406 156.867188 C 328.351562 157.703125 329.175781 158.691406 329.789062 159.835938 C 330.402344 160.988281 330.664062 162.335938 330.570312 163.875 C 330.507812 165.699219 329.957031 167.316406 328.917969 168.734375 C 327.882812 170.148438 326.457031 171.25 324.644531 172.035156 C 322.839844 172.820312 320.726562 173.214844 318.308594 173.214844 Z M 361.351562 148.355469 C 362.890625 148.355469 363.984375 148.835938 364.625 149.792969 C 365.273438 150.753906 365.597656 152.035156 365.597656 153.640625 C 365.597656 154.457031 365.515625 155.496094 365.359375 156.753906 C 365.203125 158.011719 365.019531 159.347656 364.8125 160.761719 C 364.613281 162.175781 364.421875 163.503906 364.246094 164.742188 C 364.078125 165.988281 363.992188 167.003906 363.992188 167.789062 C 363.992188 168.324219 364.085938 168.703125 364.273438 168.921875 C 364.464844 169.140625 364.699219 169.253906 364.984375 169.253906 C 365.390625 169.253906 365.832031 168.960938 366.304688 168.375 C 366.773438 167.796875 367.230469 166.753906 367.671875 165.242188 L 369.792969 165.855469 C 369.667969 166.515625 369.433594 167.253906 369.085938 168.074219 C 368.742188 168.890625 368.289062 169.667969 367.738281 170.402344 C 367.191406 171.144531 366.523438 171.757812 365.738281 172.242188 C 364.953125 172.734375 364.054688 172.976562 363.050781 172.976562 C 361.414062 172.976562 360.265625 172.539062 359.605469 171.65625 C 358.945312 170.777344 358.617188 169.535156 358.617188 167.929688 C 358.617188 166.863281 358.699219 165.6875 358.871094 164.414062 C 359.046875 163.140625 359.246094 161.851562 359.464844 160.546875 C 359.683594 159.242188 359.875 157.996094 360.03125 156.800781 C 360.1875 155.605469 360.265625 154.535156 360.265625 153.59375 C 360.265625 153.089844 360.1875 152.710938 360.03125 152.460938 C 359.875 152.210938 359.636719 152.082031 359.324219 152.082031 C 358.945312 152.082031 358.519531 152.371094 358.050781 152.953125 C 357.578125 153.535156 357.121094 154.582031 356.679688 156.09375 L 354.558594 155.480469 C 354.652344 154.851562 354.875 154.128906 355.21875 153.308594 C 355.566406 152.492188 356.027344 151.707031 356.605469 150.953125 C 357.191406 150.195312 357.875 149.574219 358.664062 149.082031 C 359.449219 148.597656 360.34375 148.355469 361.351562 148.355469 Z M 363.378906 137.039062 C 364.292969 137.039062 365.046875 137.367188 365.644531 138.027344 C 366.242188 138.6875 366.507812 139.523438 366.445312 140.527344 C 366.445312 141.503906 366.128906 142.320312 365.5 142.980469 C 364.871094 143.640625 364.085938 143.972656 363.144531 143.972656 C 362.199219 143.972656 361.4375 143.640625 360.851562 142.980469 C 360.273438 142.320312 359.984375 141.503906 359.984375 140.527344 C 360.046875 139.523438 360.40625 138.6875 361.066406 138.027344 C 361.726562 137.367188 362.5 137.039062 363.378906 137.039062 Z M 404.679688 184.488281 L 393.78125 184.488281 L 393.78125 181.988281 C 394.601562 181.988281 395.199219 181.765625 395.574219 181.328125 C 395.953125 180.886719 396.21875 180.28125 396.375 179.515625 C 396.535156 178.742188 396.644531 177.882812 396.707031 176.941406 C 397.019531 173.574219 397.289062 170.578125 397.507812 167.949219 C 397.730469 165.328125 397.90625 163.058594 398.046875 161.140625 C 398.191406 159.222656 398.300781 157.65625 398.375 156.441406 C 398.457031 155.234375 398.5 154.363281 398.5 153.828125 C 398.5 153.230469 398.425781 152.789062 398.28125 152.507812 C 398.144531 152.226562 397.917969 152.082031 397.601562 152.082031 C 397.195312 152.082031 396.753906 152.371094 396.28125 152.953125 C 395.8125 153.535156 395.371094 154.582031 394.960938 156.09375 L 392.792969 155.480469 C 392.917969 154.851562 393.121094 154.128906 393.40625 153.308594 C 393.6875 152.492188 394.082031 151.707031 394.585938 150.953125 C 395.085938 150.195312 395.707031 149.574219 396.441406 149.082031 C 397.183594 148.597656 398.058594 148.355469 399.066406 148.355469 C 400.199219 148.355469 401.109375 148.71875 401.800781 149.441406 C 402.492188 150.164062 402.839844 151.3125 402.839844 152.886719 C 402.839844 153.578125 402.796875 154.210938 402.714844 154.789062 C 402.640625 155.375 402.554688 155.96875 402.460938 156.5625 L 402.554688 156.5625 C 403.339844 154.332031 404.195312 152.625 405.121094 151.441406 C 406.050781 150.265625 407.003906 149.457031 407.980469 149.019531 C 408.953125 148.578125 409.867188 148.355469 410.714844 148.355469 C 412.226562 148.355469 413.484375 148.75 414.488281 149.535156 C 415.496094 150.324219 416.25 151.390625 416.753906 152.742188 C 417.253906 154.097656 417.507812 155.652344 417.507812 157.414062 C 417.507812 160.433594 417.011719 163.109375 416.015625 165.449219 C 415.03125 167.796875 413.535156 169.636719 411.535156 170.96875 C 409.542969 172.308594 407.035156 172.976562 404.019531 172.976562 C 403.765625 172.976562 403.484375 172.972656 403.167969 172.960938 C 402.855469 172.941406 402.554688 172.914062 402.273438 172.882812 C 402.179688 174.707031 402.089844 176.179688 402.007812 177.296875 C 401.933594 178.410156 401.871094 179.292969 401.820312 179.941406 C 401.777344 180.582031 401.707031 181.136719 401.613281 181.609375 C 402.117188 181.546875 402.65625 181.507812 403.234375 181.496094 C 403.820312 181.476562 404.300781 181.46875 404.679688 181.46875 Z M 404.632812 170.382812 C 405.792969 170.382812 406.792969 170.085938 407.621094 169.488281 C 408.457031 168.890625 409.148438 168.121094 409.695312 167.175781 C 410.25 166.234375 410.683594 165.195312 411 164.0625 C 411.3125 162.933594 411.539062 161.816406 411.675781 160.714844 C 411.820312 159.613281 411.894531 158.625 411.894531 157.742188 C 411.894531 156.484375 411.800781 155.421875 411.613281 154.554688 C 411.421875 153.695312 411.128906 153.042969 410.734375 152.601562 C 410.34375 152.160156 409.851562 151.941406 409.253906 151.941406 C 408.53125 151.941406 407.84375 152.261719 407.195312 152.902344 C 406.554688 153.550781 405.957031 154.46875 405.40625 155.648438 C 404.855469 156.824219 404.378906 158.214844 403.96875 159.820312 C 403.5625 161.421875 403.214844 163.199219 402.933594 165.148438 C 402.839844 165.902344 402.746094 166.679688 402.648438 167.480469 C 402.554688 168.285156 402.476562 169.125 402.414062 170.007812 C 402.824219 170.101562 403.222656 170.1875 403.613281 170.261719 C 404.007812 170.34375 404.347656 170.382812 404.632812 170.382812 Z M 446.070312 166.609375 C 447.359375 166.578125 448.308594 167.003906 448.921875 167.882812 C 449.535156 168.765625 449.8125 169.847656 449.75 171.140625 C 449.75 172.082031 449.578125 173.113281 449.230469 174.234375 C 448.886719 175.347656 448.382812 176.492188 447.722656 177.675781 C 447.0625 178.851562 446.230469 180.007812 445.222656 181.136719 L 443.664062 179.957031 C 444.074219 179.457031 444.503906 178.789062 444.957031 177.960938 C 445.417969 177.121094 445.804688 176.226562 446.117188 175.269531 C 446.433594 174.308594 446.589844 173.386719 446.589844 172.507812 C 446.402344 172.539062 446.230469 172.570312 446.070312 172.601562 C 445.914062 172.632812 445.742188 172.648438 445.550781 172.648438 C 444.796875 172.648438 444.144531 172.402344 443.589844 171.914062 C 443.042969 171.429688 442.769531 170.746094 442.769531 169.863281 C 442.832031 168.953125 443.167969 168.183594 443.777344 167.554688 C 444.394531 166.925781 445.160156 166.609375 446.070312 166.609375 Z M 512.632812 139.441406 L 535.792969 139.441406 L 535.554688 148.308594 L 533.007812 148.308594 C 533.101562 146.519531 532.875 145.171875 532.320312 144.273438 C 531.773438 143.378906 531.050781 142.777344 530.148438 142.460938 C 529.257812 142.148438 528.339844 142.003906 527.394531 142.035156 L 524.894531 142.085938 C 524.078125 142.117188 523.417969 142.257812 522.914062 142.507812 C 522.410156 142.761719 522.039062 143.207031 521.800781 143.847656 C 521.570312 144.496094 521.421875 145.449219 521.359375 146.707031 L 520.980469 153.921875 L 525.792969 153.96875 C 526.230469 153.65625 526.59375 153.308594 526.875 152.933594 C 527.160156 152.554688 527.371094 152.105469 527.507812 151.582031 C 527.652344 151.066406 527.742188 150.449219 527.773438 149.726562 L 530.699219 149.726562 L 530.132812 160.808594 L 527.539062 160.808594 C 527.601562 159.457031 527.441406 158.488281 527.066406 157.902344 C 526.6875 157.324219 526.136719 156.964844 525.414062 156.828125 C 524.691406 156.683594 523.8125 156.628906 522.773438 156.660156 L 520.839844 156.753906 L 520.367188 165.480469 C 520.335938 166.328125 520.28125 167.105469 520.199219 167.808594 C 520.121094 168.519531 520.054688 169.078125 519.992188 169.488281 L 527.207031 169.441406 C 528.308594 169.441406 529.328125 169.226562 530.273438 168.800781 C 531.214844 168.378906 531.992188 167.65625 532.601562 166.628906 C 533.21875 165.609375 533.574219 164.222656 533.667969 162.460938 L 536.261719 162.460938 L 535.460938 172.460938 L 510.886719 172.460938 L 511.027344 169.863281 C 511.910156 169.832031 512.589844 169.683594 513.074219 169.414062 C 513.566406 169.148438 513.929688 168.675781 514.160156 167.996094 C 514.398438 167.324219 514.535156 166.390625 514.566406 165.195312 L 515.605469 146.375 C 515.636719 145.589844 515.6875 144.835938 515.765625 144.113281 C 515.847656 143.390625 515.917969 142.824219 515.980469 142.414062 C 515.445312 142.445312 514.832031 142.46875 514.140625 142.480469 C 513.449219 142.5 512.898438 142.523438 512.492188 142.554688 Z M 569.589844 172.976562 C 568.144531 172.976562 566.808594 172.765625 565.582031 172.335938 C 564.355469 171.914062 563.359375 171.300781 562.589844 170.496094 C 561.816406 169.699219 561.429688 168.75 561.429688 167.648438 C 561.429688 166.769531 561.691406 166.050781 562.214844 165.496094 C 562.730469 164.949219 563.363281 164.675781 564.121094 164.675781 C 564.90625 164.675781 565.527344 164.933594 565.988281 165.449219 C 566.441406 165.972656 566.667969 166.578125 566.667969 167.269531 C 566.667969 167.492188 566.644531 167.726562 566.601562 167.980469 C 566.550781 168.230469 566.460938 168.480469 566.335938 168.734375 C 566.523438 169.171875 566.972656 169.550781 567.683594 169.863281 C 568.390625 170.179688 569.039062 170.335938 569.636719 170.335938 C 571.117188 170.335938 572.183594 170.007812 572.84375 169.347656 C 573.503906 168.6875 573.835938 167.867188 573.835938 166.894531 C 573.835938 166.203125 573.585938 165.59375 573.082031 165.074219 C 572.578125 164.558594 571.933594 164.054688 571.148438 163.5625 C 570.359375 163.078125 569.527344 162.585938 568.648438 162.082031 C 567.359375 161.328125 566.25 160.605469 565.328125 159.914062 C 564.394531 159.222656 563.695312 158.488281 563.222656 157.714844 C 562.75 156.949219 562.515625 156.046875 562.515625 155.007812 C 562.515625 153.875 562.863281 152.808594 563.554688 151.800781 C 564.246094 150.792969 565.234375 149.96875 566.523438 149.320312 C 567.8125 148.679688 569.371094 148.355469 571.195312 148.355469 C 572.421875 148.355469 573.617188 148.550781 574.777344 148.941406 C 575.941406 149.339844 576.902344 149.914062 577.65625 150.667969 C 578.410156 151.421875 578.789062 152.320312 578.789062 153.355469 C 578.789062 154.113281 578.550781 154.761719 578.082031 155.308594 C 577.609375 155.863281 576.964844 156.140625 576.148438 156.140625 C 575.390625 156.140625 574.789062 155.886719 574.335938 155.386719 C 573.875 154.882812 573.648438 154.285156 573.648438 153.59375 C 573.648438 153.339844 573.671875 153.105469 573.722656 152.886719 C 573.765625 152.664062 573.851562 152.445312 573.976562 152.226562 C 573.757812 151.816406 573.375 151.5 572.828125 151.28125 C 572.273438 151.0625 571.667969 150.953125 571.003906 150.953125 C 570.503906 150.953125 569.976562 151.066406 569.429688 151.300781 C 568.878906 151.539062 568.410156 151.871094 568.035156 152.292969 C 567.65625 152.71875 567.46875 153.230469 567.46875 153.828125 C 567.46875 154.332031 567.59375 154.773438 567.84375 155.148438 C 568.097656 155.527344 568.539062 155.933594 569.167969 156.375 C 569.796875 156.816406 570.644531 157.351562 571.714844 157.980469 C 572.78125 158.609375 573.875 159.273438 574.996094 159.980469 C 576.109375 160.691406 577.042969 161.507812 577.796875 162.433594 C 578.550781 163.363281 578.929688 164.503906 578.929688 165.855469 C 578.929688 167.238281 578.53125 168.464844 577.730469 169.535156 C 576.925781 170.605469 575.816406 171.445312 574.402344 172.054688 C 572.988281 172.671875 571.382812 172.976562 569.589844 172.976562 Z M 615.984375 148.355469 C 617.398438 148.355469 618.664062 148.59375 619.785156 149.066406 C 620.898438 149.535156 621.785156 150.1875 622.445312 151.015625 C 623.105469 151.855469 623.4375 152.839844 623.4375 153.96875 C 623.4375 154.820312 623.195312 155.515625 622.710938 156.0625 C 622.21875 156.617188 621.566406 156.894531 620.746094 156.894531 C 619.773438 156.925781 619.089844 156.644531 618.699219 156.046875 C 618.304688 155.449219 618.105469 154.914062 618.105469 154.441406 C 618.105469 154.160156 618.148438 153.84375 618.230469 153.5 C 618.304688 153.152344 618.4375 152.824219 618.625 152.507812 C 618.5 152.035156 618.183594 151.664062 617.683594 151.394531 C 617.179688 151.128906 616.582031 151 615.890625 151 C 614.757812 151 613.828125 151.34375 613.105469 152.035156 C 612.382812 152.726562 611.8125 153.609375 611.390625 154.675781 C 610.960938 155.746094 610.652344 156.886719 610.464844 158.09375 C 610.277344 159.304688 610.183594 160.449219 610.183594 161.515625 C 610.121094 163.371094 610.300781 164.867188 610.730469 165.996094 C 611.152344 167.128906 611.714844 167.953125 612.425781 168.46875 C 613.132812 168.992188 613.894531 169.269531 614.710938 169.300781 C 615.371094 169.332031 616.101562 169.21875 616.90625 168.96875 C 617.707031 168.71875 618.5 168.203125 619.285156 167.429688 C 620.070312 166.664062 620.777344 165.542969 621.40625 164.0625 L 623.765625 165.195312 C 622.917969 167.175781 621.953125 168.734375 620.871094 169.863281 C 619.78125 170.996094 618.632812 171.789062 617.425781 172.242188 C 616.214844 172.703125 614.960938 172.945312 613.671875 172.976562 C 610.90625 172.945312 608.683594 172.097656 607.003906 170.429688 C 605.316406 168.765625 604.476562 166.1875 604.476562 162.695312 C 604.476562 161.15625 604.703125 159.550781 605.164062 157.886719 C 605.617188 156.21875 606.316406 154.667969 607.257812 153.234375 C 608.199219 151.808594 609.394531 150.636719 610.84375 149.726562 C 612.289062 148.8125 614.003906 148.355469 615.984375 148.355469 Z M 662.566406 148.355469 C 663.445312 148.355469 664.46875 148.4375 665.632812 148.59375 C 666.792969 148.75 667.972656 148.984375 669.167969 149.300781 C 668.980469 150.683594 668.769531 152.257812 668.535156 154.015625 C 668.296875 155.777344 668.0625 157.53125 667.828125 159.273438 C 667.589844 161.019531 667.402344 162.617188 667.261719 164.0625 C 667.117188 165.511719 667.046875 166.625 667.046875 167.414062 C 667.046875 168.011719 667.109375 168.464844 667.234375 168.78125 C 667.359375 169.09375 667.597656 169.253906 667.941406 169.253906 C 668.351562 169.253906 668.800781 168.960938 669.292969 168.375 C 669.773438 167.796875 670.238281 166.753906 670.679688 165.242188 L 672.800781 165.855469 C 672.707031 166.484375 672.5 167.207031 672.1875 168.027344 C 671.871094 168.84375 671.457031 169.628906 670.941406 170.382812 C 670.421875 171.140625 669.78125 171.757812 669.027344 172.242188 C 668.273438 172.734375 667.390625 172.976562 666.386719 172.976562 C 665.316406 172.976562 664.4375 172.648438 663.746094 171.988281 C 663.050781 171.328125 662.707031 170.226562 662.707031 168.6875 C 662.707031 168.121094 662.746094 167.492188 662.828125 166.800781 C 662.90625 166.109375 663.003906 165.429688 663.132812 164.769531 L 663.035156 164.769531 C 662.40625 166.4375 661.746094 167.8125 661.054688 168.894531 C 660.363281 169.980469 659.65625 170.824219 658.933594 171.421875 C 658.210938 172.019531 657.488281 172.429688 656.765625 172.648438 C 656.039062 172.867188 655.332031 172.976562 654.640625 172.976562 C 652.910156 172.976562 651.449219 172.300781 650.253906 170.949219 C 649.058594 169.597656 648.460938 167.460938 648.460938 164.535156 C 648.460938 162.335938 648.769531 160.265625 649.386719 158.328125 C 649.996094 156.398438 650.898438 154.675781 652.09375 153.167969 C 653.289062 151.660156 654.761719 150.480469 656.507812 149.628906 C 658.25 148.78125 660.269531 148.355469 662.566406 148.355469 Z M 660.914062 151 C 659.84375 151 658.886719 151.320312 658.039062 151.960938 C 657.1875 152.609375 656.464844 153.523438 655.867188 154.707031 C 655.269531 155.882812 654.824219 157.289062 654.527344 158.921875 C 654.226562 160.558594 654.074219 162.382812 654.074219 164.394531 C 654.074219 165.933594 654.257812 167.167969 654.621094 168.089844 C 654.980469 169.023438 655.539062 169.488281 656.292969 169.488281 C 657.046875 169.488281 657.769531 169.109375 658.460938 168.355469 C 659.152344 167.601562 659.78125 166.578125 660.347656 165.289062 C 660.914062 164 661.417969 162.5625 661.859375 160.96875 C 662.296875 159.386719 662.660156 157.769531 662.941406 156.121094 C 663.226562 154.46875 663.382812 152.886719 663.414062 151.375 C 663.164062 151.28125 662.800781 151.195312 662.328125 151.113281 C 661.859375 151.035156 661.386719 151 660.914062 151 Z M 707.402344 184.488281 L 696.507812 184.488281 L 696.507812 181.988281 C 697.324219 181.988281 697.921875 181.765625 698.296875 181.328125 C 698.675781 180.886719 698.941406 180.28125 699.101562 179.515625 C 699.257812 178.742188 699.367188 177.882812 699.429688 176.941406 C 699.746094 173.574219 700.011719 170.578125 700.230469 167.949219 C 700.453125 165.328125 700.636719 163.058594 700.78125 161.140625 C 700.917969 159.222656 701.027344 157.65625 701.109375 156.441406 C 701.183594 155.234375 701.222656 154.363281 701.222656 153.828125 C 701.222656 153.230469 701.152344 152.789062 701.015625 152.507812 C 700.871094 152.226562 700.640625 152.082031 700.328125 152.082031 C 699.917969 152.082031 699.476562 152.371094 699.007812 152.953125 C 698.535156 153.535156 698.09375 154.582031 697.683594 156.09375 L 695.515625 155.480469 C 695.640625 154.851562 695.847656 154.128906 696.128906 153.308594 C 696.410156 152.492188 696.804688 151.707031 697.308594 150.953125 C 697.8125 150.195312 698.433594 149.574219 699.175781 149.082031 C 699.910156 148.597656 700.78125 148.355469 701.789062 148.355469 C 702.921875 148.355469 703.832031 148.71875 704.523438 149.441406 C 705.214844 150.164062 705.5625 151.3125 705.5625 152.886719 C 705.5625 153.578125 705.523438 154.210938 705.449219 154.789062 C 705.367188 155.375 705.277344 155.96875 705.183594 156.5625 L 705.277344 156.5625 C 706.066406 154.332031 706.921875 152.625 707.855469 151.441406 C 708.777344 150.265625 709.726562 149.457031 710.703125 149.019531 C 711.679688 148.578125 712.589844 148.355469 713.4375 148.355469 C 714.949219 148.355469 716.207031 148.75 717.210938 149.535156 C 718.21875 150.324219 718.972656 151.390625 719.476562 152.742188 C 719.980469 154.097656 720.230469 155.652344 720.230469 157.414062 C 720.230469 160.433594 719.738281 163.109375 718.75 165.449219 C 717.757812 167.796875 716.261719 169.636719 714.269531 170.96875 C 712.269531 172.308594 709.761719 172.976562 706.742188 172.976562 C 706.488281 172.976562 706.207031 172.972656 705.890625 172.960938 C 705.578125 172.941406 705.277344 172.914062 704.996094 172.882812 C 704.902344 174.707031 704.816406 176.179688 704.742188 177.296875 C 704.660156 178.410156 704.597656 179.292969 704.550781 179.941406 C 704.503906 180.582031 704.429688 181.136719 704.335938 181.609375 C 704.839844 181.546875 705.382812 181.507812 705.96875 181.496094 C 706.546875 181.476562 707.023438 181.46875 707.402344 181.46875 Z M 707.355469 170.382812 C 708.519531 170.382812 709.519531 170.085938 710.355469 169.488281 C 711.183594 168.890625 711.875 168.121094 712.429688 167.175781 C 712.976562 166.234375 713.40625 165.195312 713.722656 164.0625 C 714.035156 162.933594 714.265625 161.816406 714.410156 160.714844 C 714.550781 159.613281 714.617188 158.625 714.617188 157.742188 C 714.617188 156.484375 714.523438 155.421875 714.335938 154.554688 C 714.144531 153.695312 713.855469 153.042969 713.46875 152.601562 C 713.070312 152.160156 712.574219 151.941406 711.976562 151.941406 C 711.253906 151.941406 710.570312 152.261719 709.929688 152.902344 C 709.28125 153.550781 708.683594 154.46875 708.136719 155.648438 C 707.582031 156.824219 707.101562 158.214844 706.695312 159.820312 C 706.285156 161.421875 705.9375 163.199219 705.65625 165.148438 C 705.5625 165.902344 705.46875 166.679688 705.375 167.480469 C 705.277344 168.285156 705.199219 169.125 705.136719 170.007812 C 705.546875 170.101562 705.949219 170.1875 706.34375 170.261719 C 706.734375 170.34375 707.070312 170.382812 707.355469 170.382812 Z M 757.238281 148.355469 C 758.527344 148.355469 759.699219 148.550781 760.757812 148.941406 C 761.804688 149.339844 762.628906 149.960938 763.226562 150.808594 C 763.824219 151.660156 764.125 152.757812 764.125 154.113281 C 764.125 155.402344 763.722656 156.5 762.925781 157.414062 C 762.121094 158.324219 761.066406 159.070312 759.765625 159.648438 C 758.457031 160.234375 757.050781 160.714844 755.539062 161.09375 C 754.03125 161.46875 752.566406 161.738281 751.152344 161.894531 C 751.152344 163.75 751.359375 165.21875 751.765625 166.300781 C 752.175781 167.386719 752.734375 168.15625 753.445312 168.609375 C 754.148438 169.070312 754.925781 169.300781 755.777344 169.300781 C 756.4375 169.300781 757.167969 169.164062 757.972656 168.894531 C 758.773438 168.628906 759.566406 168.136719 760.351562 167.414062 C 761.136719 166.6875 761.828125 165.683594 762.425781 164.394531 L 764.691406 165.527344 C 763.808594 167.445312 762.835938 168.945312 761.765625 170.027344 C 760.695312 171.113281 759.566406 171.878906 758.371094 172.316406 C 757.175781 172.757812 755.933594 172.976562 754.644531 172.976562 C 751.71875 173.007812 749.457031 172.144531 747.851562 170.382812 C 746.246094 168.625 745.445312 166.078125 745.445312 162.742188 C 745.445312 161.109375 745.683594 159.449219 746.152344 157.761719 C 746.625 156.082031 747.34375 154.535156 748.304688 153.121094 C 749.261719 151.707031 750.476562 150.558594 751.953125 149.679688 C 753.433594 148.796875 755.195312 148.355469 757.238281 148.355469 Z M 756.671875 150.953125 C 755.476562 150.953125 754.503906 151.367188 753.746094 152.195312 C 752.992188 153.03125 752.421875 154.085938 752.03125 155.355469 C 751.632812 156.632812 751.375 157.949219 751.246094 159.300781 C 752.945312 159.015625 754.375 158.597656 755.539062 158.046875 C 756.703125 157.5 757.597656 156.847656 758.226562 156.09375 C 758.855469 155.339844 759.171875 154.503906 759.171875 153.59375 C 759.140625 152.742188 758.886719 152.089844 758.417969 151.628906 C 757.945312 151.179688 757.363281 150.953125 756.671875 150.953125 Z M 756.671875 150.953125 " fill-opacity="1" fill-rule="nonzero"/></g></svg>